<?xml version="1.0" encoding="UTF-8" standalone="no"?>
<!-- Created with Inkscape (http://www.inkscape.org/) -->

<svg
   xmlns:dc="http://purl.org/dc/elements/1.1/"
   xmlns:cc="http://creativecommons.org/ns#"
   xmlns:rdf="http://www.w3.org/1999/02/22-rdf-syntax-ns#"
   xmlns:svg="http://www.w3.org/2000/svg"
   xmlns="http://www.w3.org/2000/svg"
   xmlns:sodipodi="http://sodipodi.sourceforge.net/DTD/sodipodi-0.dtd"
   xmlns:inkscape="http://www.inkscape.org/namespaces/inkscape"
   width="60.13768"
   height="60.776516"
   viewBox="0 0 60.137677 60.776516"
   id="svg4160"
   version="1.1"
   inkscape:version="0.92.4 (5da689c313, 2019-01-14)"
   sodipodi:docname="chamber.svg">
  <defs
     id="defs4162"><style
   id="style7263"
   type="text/css">
   <![CDATA[
    .fil0 {fill:#3D2618}
   ]]>
  </style>
<style
   id="style7408"
   type="text/css">
   <![CDATA[
    .fil2 {fill:#00D9F7}
    .fil0 {fill:#01BAD5}
    .fil1 {fill:#FBFDFD}
   ]]>
  </style>

  
  
  
  
 </defs>
  <sodipodi:namedview
     id="base"
     pagecolor="#ffffff"
     bordercolor="#666666"
     borderopacity="1.0"
     inkscape:pageopacity="0.0"
     inkscape:pageshadow="2"
     inkscape:zoom="2.8"
     inkscape:cx="28.699578"
     inkscape:cy="54.071175"
     inkscape:document-units="px"
     inkscape:current-layer="layer3"
     showgrid="true"
     units="in"
     showguides="false"
     inkscape:window-width="1920"
     inkscape:window-height="1017"
     inkscape:window-x="-8"
     inkscape:window-y="-8"
     inkscape:window-maximized="1"
     inkscape:snap-bbox="true"
     inkscape:snap-global="false">
    <inkscape:grid
       type="xygrid"
       id="grid4712"
       originx="-9.9771178"
       originy="-29.820954" />
  </sodipodi:namedview>
  <metadata
     id="metadata4165">
    <rdf:RDF>
      <cc:Work
         rdf:about="">
        <dc:format>image/svg+xml</dc:format>
        <dc:type
           rdf:resource="http://purl.org/dc/dcmitype/StillImage" />
        <dc:title></dc:title>
      </cc:Work>
    </rdf:RDF>
  </metadata>
  <g
     inkscape:groupmode="layer"
     id="layer3"
     inkscape:label="Home"
     style="display:inline"
     transform="translate(-3.5328446,2.2636422)">
    <g
       style="clip-rule:evenodd;fill-rule:evenodd;image-rendering:optimizeQuality;shape-rendering:geometricPrecision;text-rendering:geometricPrecision"
       id="g7432"
       transform="matrix(0.08781271,0,0,0.08781271,5.2924796,-0.10655585)">
      <path
         style="fill:#00ccff;fill-opacity:1"
         inkscape:connector-curvature="0"
         class="fil0"
         d="m 81,649 c 4,-1 57,-2 63,1 h 370 c 5,-3 46,-3 56,-2 6,1 3,-1 7,2 57,0 73,2 73,-58 V 68 C 650,45 652,24 640,12 626,-2 612,0 585,0 H 59 C -2,0 0,15 0,73 v 526 c 0,25 3,38 20,46 11,6 44,8 61,4 z"
         id="path7413" />
      <path
         style="fill:#fbfdfd"
         inkscape:connector-curvature="0"
         class="fil1"
         d="m 310,166 c -7,-3 -15,-12 -22,-16 -5,2 -15,16 -18,21 2,2 1,1 3,3 l 34,27 c 4,5 3,-1 3,9 2,19 0,57 0,78 -6,-2 -4,-1 -8,-6 -3,-3 -5,-5 -8,-8 -5,-5 -9,-9 -14,-14 -9,-9 -21,-23 -30,-29 l 5,-54 -28,-3 c -1,5 -2,10 -2,14 0,6 -1,11 -4,14 -3,-5 -20,-22 -25,-24 l -18,19 c 5,9 13,13 19,21 6,7 6,4 3,5 -5,4 -19,3 -26,4 l 3,28 54,-5 c 8,12 37,38 50,51 5,4 5,3 7,9 l -77,1 c -11,-1 -12,-7 -19,-16 l -18,-22 c 0,0 -1,-1 -1,-1 l -2,-2 c -6,4 -16,12 -22,17 3,5 14,19 17,23 l -36,1 v 28 h 36 c -3,4 -13,18 -16,23 2,3 17,15 21,18 0,-1 1,-2 1,-1 l 24,-30 c 11,-14 10,-10 44,-10 h 48 c -2,6 -2,5 -6,9 -3,3 -5,5 -8,8 -13,13 -32,29 -43,44 l -54,-6 -3,29 28,3 c -6,12 -19,17 -25,28 l 19,18 c 6,-2 9,-6 13,-10 4,-5 9,-11 12,-14 6,6 5,20 6,28 l 27,-3 -4,-54 c 20,-15 35,-38 54,-54 5,-4 1,-1 6,-4 0,15 2,73 0,82 -1,7 -35,32 -40,34 2,6 5,9 8,13 4,4 5,7 10,10 6,-4 16,-14 22,-16 v 35 h 29 v -35 c 7,2 17,12 23,16 3,-2 15,-17 17,-21 l -9,-9 c -39,-30 -31,-17 -31,-74 v -35 c 8,4 10,10 16,15 16,13 28,30 45,43 -1,14 -7,43 -5,54 l 28,3 3,-28 25,24 c 10,-3 14,-12 21,-18 -6,-11 -19,-16 -24,-28 l 28,-3 -3,-28 -54,5 c -11,-15 -29,-30 -43,-43 -3,-3 -5,-5 -7,-8 l -8,-10 c 14,0 72,-1 82,0 7,2 14,14 18,20 6,7 11,16 18,20 4,-2 18,-13 21,-17 -4,-7 -13,-16 -16,-22 l 35,-1 c 2,-8 1,-19 1,-28 l -37,-1 c 4,-8 14,-14 17,-23 -5,-5 -15,-13 -21,-17 -7,5 -13,14 -18,21 -21,27 -7,20 -70,19 h -30 c 5,-10 20,-22 29,-30 8,-9 23,-21 29,-30 l 54,5 3,-28 -29,-3 c 3,-5 2,-4 6,-8 6,-6 15,-12 19,-20 l -20,-19 -18,19 c -4,4 -3,4 -8,6 l -3,-28 -28,3 5,54 c -15,10 -30,29 -44,43 l -11,11 c -4,3 -1,1 -6,3 0,-15 -2,-72 0,-81 1,-7 15,-14 20,-19 l 15,-12 c 1,0 2,-2 3,-2 2,-2 1,-1 2,-3 -2,-5 -13,-19 -17,-21 -8,4 -15,13 -23,16 v -35 c -7,-2 -22,-2 -29,0 z"
         id="path7415" />
      <path
         style="fill:#fbfdfd;fill-opacity:1"
         inkscape:connector-curvature="0"
         class="fil2"
         d="m 36,25 c -9,2 -19,13 -12,25 7,10 17,9 32,9 26,-1 56,0 83,0 53,2 111,-3 164,0 13,1 27,0 40,0 41,1 85,-2 124,0 h 123 c 14,0 27,1 31,-12 C 628,16 584,26 563,25 523,23 454,24 413,24 l -76,1 c -24,1 -49,-1 -74,0 -19,1 -54,1 -74,0 -24,-2 -52,0 -76,-1 z"
         id="path7417" />
    </g>
  </g>
</svg>
