<?xml version="1.0" encoding="UTF-8" standalone="no"?>
<!-- Created with Inkscape (http://www.inkscape.org/) -->

<svg
   xmlns:dc="http://purl.org/dc/elements/1.1/"
   xmlns:cc="http://creativecommons.org/ns#"
   xmlns:rdf="http://www.w3.org/1999/02/22-rdf-syntax-ns#"
   xmlns:svg="http://www.w3.org/2000/svg"
   xmlns="http://www.w3.org/2000/svg"
   xmlns:sodipodi="http://sodipodi.sourceforge.net/DTD/sodipodi-0.dtd"
   xmlns:inkscape="http://www.inkscape.org/namespaces/inkscape"
   width="16.208mm"
   height="16.208mm"
   viewBox="0 0 16.208 16.208"
   version="1.1"
   id="svg8"
   inkscape:version="0.92.4 (5da689c313, 2019-01-14)"
   sodipodi:docname="en.svg">
  <defs
     id="defs2">
    <path
       d="M0-76.45c4-0.05,5.5-2.55,5.5-5.55,0-4-5.5-23.05-5.5-23.05s-5.5,19.05-5.5,23.05c0,3,1.5,5.55,5.5,5.55z"
       id="be" />
    <path
       d="M-1,15c0-10,9-15.14,16.072-15.14,9.528,0,14.601,5.683,14.601,13.122,0,4.2169-0.77453,6.863-2.7237,10.899,0,0-15.717,32.606-21.836,45.217-0.76309,1.5729-1.0093,3.3634-1.0093,5.9885,0,4.0539,3.9416,7.3673,8.0744,7.4688,3.7675,0.094,7.8725-3.5039,7.8725-7.6033,0-4.9796-2.5894-7.1996-5.2483-7.1996-3.2718,0-4.5755,1.3418-4.5755,3.6335,0,1.5968,0.77308,2.2877,1.884,2.2877,2.8063,0,2.0186-3.768,2.0186-3.768,1.3938,0.3044,2.5388,1.725,1.884,3.4989,1.0196,0.22647,1.9747,0.7604,2.7251,1.6149-0.75228,0.72756-1.6152,1.2892-2.7251,1.4803,0.65722,2.1644-0.221,3.222-2.1195,3.6671,0.38311-0.8326,0.39629-1.5985,0.26914-2.3214-2.9889,0.84788-7.5697-0.5014-7.5697-5.652,0-5.1138,3.5576-9.4196,10.228-8.3435-1.5869-0.75687-2.394-2.3055-2.5569-4.0372,1.2112,0.471,2.5569,0.53829,2.5569,0.53829-0.77989-1.3719-1.8631-2.5544-1.8167-5.2483,1.2367,0.56086,2.3851,1.5994,3.9699,0.94201-2.4873-4.8826,0.56859-11.599,8.3435-13.188-2.8455,3.3273-4.239,6.9201-4.239,10.497,0,11.592,3.2297,13.54,3.2297,21.599,0,3.3717-1.7375,7.013-5.181,9.4874v-0.13457c2.276,0.608,3.734,1.726,4.572,3.245-5.2,1.471-12.759,1.444-16.818-0.149-4.6656-0.539-7.9221-4.11-8.8818-5.922-0.95972-1.811-2.8237-8.364,0-14.264,3.0903-6.457,17.661-37.277,22.204-46.966,0.9636-2.055,1.5476-4.2343,1.5476-6.5941,0-5.9349-5.4502-8.0071-8.5454-8.0071-3.7007,0-7.4688,2.8125-7.4688,6.3249,0,2.2256,1.2112,3.5662,2.9606,3.5662,4.1833,0,3.9292-3.55,3.0952-5.7866,2.6035,1.1676,4.1168,3.252,3.7007,5.4502,1.474,0.2014,2.877,0.89888,4.1717,2.355-1.0187,1.2832-2.2612,2.2532-4.1717,2.2877,0.83444,3.41-1.4543,4.8522-3.7007,5.652,0.71068-2.5027,1.1772-5.3829-3.0952-5.3829-3.115,0-5.5679-0.53829-6.9978-2.5569-0.084108,2.6914-0.33643,13.323-0.33643,13.323-0.17943,3.995,5.3605,3.8808,8.8818,2.6914-1.3289,4.6018-4.0543,7.0898-10.362,6.4595,1.5308,0.63922,3.1625,2.0762,3.1625,4.8446-0.001,3.746-3.0475,7.896-5.0475,9.123l-1-39z"
       id="orn" />
    <path
       d="m0-35.599s4.7531-3.9844,6.3671-1.9859c2.5961,3.2144-7.982,19.225-7.982,24.863,0,9.255,6.1902,11.772,13.834,13.093,5.129,0.8871,13.481-0.371,13.481-0.371-1.5725-2.1079-2.5953-2.729-5.245-2.8975,2.9499-1.5278,5.9538-4.8441,5.9538-10.007,0-7.9617-3.2855-11.243-3.2855-20.219,0-4.9792,4.0929-11.318,4.0929-11.318-7.2343,0.72228-10.82,7.4047-8.7799,12.745-1.1516,0.16548-2.1972-0.09311-3.0952-0.94201-0.52945,1.4803,0.30635,3.1985,1.426,4.6788-0.90173,0.48068-1.564,0.19242-3-0.10332,0.13618,1.5252,1.0523,3.1455,3.2936,4.6706-6.5041-1.6845-10.506,2.8376-10.506,7.5715,0,3.5758,2.5119,6.1386,4.9671,6.1386,0.79347,0,1.959-0.326,2.6166-0.8156,0.46352,0.98414,0.22467,2.3013-0.25282,3.2855,1.7996-0.47454,2.9418-1.5407,2.1287-3.7599,1.3822-0.12667,2.4817-0.59257,3.2297-1.4803-0.75781-0.96814-1.9074-1.5258-3.2297-1.4803,1.0064-2.0718-0.11515-3.2317-1.7494-4.1718,0,0,1.0393,4.1717-1.6149,4.1717-1.1935,0-2.281-0.38758-2.281-2.1422,0-1.5279,1.339-3.6444,4.4341-3.5098,3.0952,0.13457,5.6045,2.1289,5.6045,7.0577,0,4.5468-3.6762,6.8081-8.5205,6.9542-4.3688,0.13457-7.6662-2.2263-7.6662-6.7219,0-5.9835,8.6588-19.622,8.6588-24.954,0-4.0006-3.6064-6.2337-7.1351-6.2337-4.5755,0-8.4359,4.5197-8.4359,4.5197l2.688,3.362z"
       id="uorn" />
  </defs>
  <sodipodi:namedview
     id="base"
     pagecolor="#ffffff"
     bordercolor="#666666"
     borderopacity="1.0"
     inkscape:pageopacity="0.0"
     inkscape:pageshadow="2"
     inkscape:zoom="5.6"
     inkscape:cx="50.512414"
     inkscape:cy="17.194464"
     inkscape:document-units="mm"
     inkscape:current-layer="layer1"
     showgrid="false"
     inkscape:window-width="1920"
     inkscape:window-height="1017"
     inkscape:window-x="-8"
     inkscape:window-y="-8"
     inkscape:window-maximized="1" />
  <metadata
     id="metadata5">
    <rdf:RDF>
      <cc:Work
         rdf:about="">
        <dc:format>image/svg+xml</dc:format>
        <dc:type
           rdf:resource="http://purl.org/dc/dcmitype/StillImage" />
        <dc:title></dc:title>
      </cc:Work>
    </rdf:RDF>
  </metadata>
  <g
     inkscape:label="Layer 1"
     inkscape:groupmode="layer"
     id="layer1"
     transform="translate(0,-280.792)">
    <g
       id="g415"
       transform="matrix(0.03165625,0,0,0.02404335,0,282.74142)">
      <rect
         id="rect297"
         height="341.33701"
         width="512"
         style="fill:#f0f0f0"
         y="85.333"
         x="0" />
      <polygon
         id="polygon299"
         points="512,223.996 288,223.996 288,85.33 224,85.33 224,223.996 0,223.996 0,287.996 224,287.996 224,426.662 288,426.662 288,287.996 512,287.996 "
         style="fill:#d80027" />
      <g
         id="g307">
	<polygon
   id="polygon301"
   points="512,381.034 512,315.358 393.785,315.358 "
   style="fill:#0052b4" />

	<polygon
   id="polygon303"
   points="512,395.188 368.307,315.358 311.652,315.358 512,426.662 "
   style="fill:#0052b4" />

	<polygon
   id="polygon305"
   points="311.652,344.998 311.652,426.662 458.634,426.662 "
   style="fill:#0052b4" />

</g>
      <polygon
         id="polygon309"
         points="512,395.188 368.307,315.358 311.652,315.358 512,426.662 "
         style="fill:#f0f0f0" />
      <polygon
         id="polygon311"
         points="512,395.188 368.307,315.358 311.652,315.358 512,426.662 "
         style="fill:#d80027" />
      <g
         id="g317">
	<polygon
   id="polygon313"
   points="0,365.546 0,315.356 90.341,315.356 "
   style="fill:#0052b4" />

	<polygon
   id="polygon315"
   points="200.348,426.661 25.491,426.661 200.348,329.51 "
   style="fill:#0052b4" />

</g>
      <polygon
         id="polygon319"
         points="0,395.188 0,426.662 200.348,315.358 143.693,315.358 "
         style="fill:#d80027" />
      <g
         id="g327">
	<polygon
   id="polygon321"
   points="0,130.958 0,196.634 118.215,196.634 "
   style="fill:#0052b4" />

	<polygon
   id="polygon323"
   points="0,116.804 143.693,196.634 200.348,196.634 0,85.33 "
   style="fill:#0052b4" />

	<polygon
   id="polygon325"
   points="200.348,166.994 200.348,85.33 53.366,85.33 "
   style="fill:#0052b4" />

</g>
      <polygon
         id="polygon329"
         points="0,116.804 143.693,196.634 200.348,196.634 0,85.33 "
         style="fill:#f0f0f0" />
      <polygon
         id="polygon331"
         points="0,116.804 143.693,196.634 200.348,196.634 0,85.33 "
         style="fill:#d80027" />
      <g
         id="g337">
	<polygon
   id="polygon333"
   points="512,146.446 512,196.636 421.659,196.636 "
   style="fill:#0052b4" />

	<polygon
   id="polygon335"
   points="311.652,85.331 486.509,85.331 311.652,182.482 "
   style="fill:#0052b4" />

</g>
      <polygon
         id="polygon339"
         points="512,116.804 512,85.33 311.652,196.634 368.307,196.634 "
         style="fill:#d80027" />
      <g
         id="g341">
</g>
      <g
         id="g343">
</g>
      <g
         id="g345">
</g>
      <g
         id="g347">
</g>
      <g
         id="g349">
</g>
      <g
         id="g351">
</g>
      <g
         id="g353">
</g>
      <g
         id="g355">
</g>
      <g
         id="g357">
</g>
      <g
         id="g359">
</g>
      <g
         id="g361">
</g>
      <g
         id="g363">
</g>
      <g
         id="g365">
</g>
      <g
         id="g367">
</g>
      <g
         id="g369">
</g>
    </g>
  </g>
</svg>
