<?xml version="1.0" encoding="UTF-8" standalone="no"?>
<!-- Created with Inkscape (http://www.inkscape.org/) -->

<svg
   xmlns:dc="http://purl.org/dc/elements/1.1/"
   xmlns:cc="http://creativecommons.org/ns#"
   xmlns:rdf="http://www.w3.org/1999/02/22-rdf-syntax-ns#"
   xmlns:svg="http://www.w3.org/2000/svg"
   xmlns="http://www.w3.org/2000/svg"
   xmlns:sodipodi="http://sodipodi.sourceforge.net/DTD/sodipodi-0.dtd"
   xmlns:inkscape="http://www.inkscape.org/namespaces/inkscape"
   width="60.13768"
   height="60.776516"
   viewBox="0 0 60.137677 60.776516"
   id="svg4160"
   version="1.1"
   inkscape:version="0.92.4 (5da689c313, 2019-01-14)"
   sodipodi:docname="led-on.svg">
  <defs
     id="defs4162">
	
</defs>
  <sodipodi:namedview
     id="base"
     pagecolor="#ffffff"
     bordercolor="#666666"
     borderopacity="1.0"
     inkscape:pageopacity="0.0"
     inkscape:pageshadow="2"
     inkscape:zoom="5.0559421"
     inkscape:cx="-3.4242612"
     inkscape:cy="67.168918"
     inkscape:document-units="px"
     inkscape:current-layer="layer2"
     showgrid="true"
     units="in"
     showguides="false"
     inkscape:window-width="1920"
     inkscape:window-height="1017"
     inkscape:window-x="-8"
     inkscape:window-y="-8"
     inkscape:window-maximized="1"
     inkscape:snap-bbox="true"
     inkscape:snap-global="false">
    <inkscape:grid
       type="xygrid"
       id="grid4712"
       originx="-9.9771178"
       originy="-29.820954" />
  </sodipodi:namedview>
  <metadata
     id="metadata4165">
    <rdf:RDF>
      <cc:Work
         rdf:about="">
        <dc:format>image/svg+xml</dc:format>
        <dc:type
           rdf:resource="http://purl.org/dc/dcmitype/StillImage" />
        <dc:title></dc:title>
      </cc:Work>
    </rdf:RDF>
  </metadata>
  <g
     inkscape:groupmode="layer"
     id="layer2"
     inkscape:label="Move"
     style="display:inline"
     transform="translate(-3.5328446,2.2636422)">
    <g
       id="g904"
       transform="matrix(0.12247857,0,0,0.1160627,3.3176027,-0.09243886)">
      <path
         style="fill:#ffffff;fill-opacity:1"
         inkscape:connector-curvature="0"
         id="XMLID_49_"
         d="m 298.4,424.7 v 14.2 c 0,11.3 -8.3,20.7 -19.1,22.3 l -3.5,12.9 c -1.9,7 -8.2,11.9 -15.5,11.9 h -34.7 c -7.3,0 -13.6,-4.9 -15.5,-11.9 l -3.4,-12.9 c -10.9,-1.7 -19.2,-11 -19.2,-22.4 v -14.2 c 0,-7.6 6.1,-13.7 13.7,-13.7 h 83.5 c 7.6,0.1 13.7,6.2 13.7,13.8 z m 64.3,-191.4 c 0,32.3 -12.8,61.6 -33.6,83.1 -15.8,16.4 -26,37.3 -29.4,59.6 -1.5,9.6 -9.8,16.7 -19.6,16.7 h -74.3 c -9.7,0 -18.1,-7 -19.5,-16.6 -3.5,-22.3 -13.8,-43.5 -29.6,-59.8 -20.4,-21.2 -33.1,-50 -33.4,-81.7 -0.7,-66.6 52.3,-120.5 118.9,-121 66.5,-0.5 120.5,53.3 120.5,119.7 z M 256.5,160.8 c 0,-7.4 -6,-13.5 -13.5,-13.5 -47.6,0 -86.4,38.7 -86.4,86.4 0,7.4 6,13.5 13.5,13.5 7.4,0 13.5,-6 13.5,-13.5 0,-32.8 26.7,-59.4 59.4,-59.4 7.5,0 13.5,-6 13.5,-13.5 z"
         sodipodi:nodetypes="ssccssccssscssccssccccssssssss" />
      <g
         id="g850">
</g>
      <g
         id="g852">
</g>
      <g
         id="g854">
</g>
      <g
         id="g856">
</g>
      <g
         id="g858">
</g>
      <g
         id="g860">
</g>
      <g
         id="g862">
</g>
      <g
         id="g864">
</g>
      <g
         id="g866">
</g>
      <g
         id="g868">
</g>
      <g
         id="g870">
</g>
      <g
         id="g872">
</g>
      <g
         id="g874">
</g>
      <g
         id="g876">
</g>
      <g
         id="g878">
</g>
      <path
         style="display:inline;fill:#00ccff;fill-opacity:1;stroke-width:0.99999994"
         inkscape:connector-curvature="0"
         id="XMLID_49_-5"
         d="m 252.06237,66.99118 c 7.39999,0 13.49999,-6 13.49999,-13.5 V 6.1911804 c 0,-7.4 -5.99999,-13.5 -13.49999,-13.5 -7.50001,0 -13.5,6 -13.5,13.5 V 53.49118 c 0,7.5 6.09999,13.5 13.5,13.5 z m -158.899997,158.9 c 0,-7.4 -6,-13.5 -13.5,-13.5 h -47.3 c -7.4,0 -13.5,6 -13.5,13.5 0,7.4 6,13.5 13.5,13.5 h 47.3 c 7.5,0 13.5,-6 13.5,-13.5 z m 378.600017,-13.5 h -47.3 c -7.4,0 -13.5,6 -13.5,13.5 0,7.4 6,13.5 13.5,13.5 h 47.3 c 7.4,0 13.5,-6 13.5,-13.5 0,-7.4 -6,-13.5 -13.5,-13.5 z m -351.10003,125.9 -33.499987,33.50001 c -5.3,5.29999 -5.3,13.79999 0,19.09999 2.6,2.6 6.1,3.9 9.5,3.9 3.399997,0 6.899997,-1.3 9.499987,-3.9 l 33.5,-33.5 c 5.30001,-5.3 5.30001,-13.8 0,-19.1 -5.19999,-5.3 -13.8,-5.3 -19,0 z m 253.30003,-220.8 c 3.4,0 6.9,-1.3 9.5,-3.9 l 33.5,-33.5 c 5.3,-5.3 5.3,-13.8 0,-19.1 -5.3,-5.3 -13.8,-5.3 -19.1,0 l -33.5,33.5 c -5.3,5.3 -5.3,13.8 0,19.1 2.7,2.6 6.1,3.9 9.6,3.9 z m -253.30003,-4 c 2.60001,2.6 6.10001,3.9 9.50001,3.9 3.39999,0 6.89999,-1.3 9.49999,-3.9 5.30001,-5.3 5.30001,-13.8 0,-19.1 l -33.5,-33.5 c -5.29999,-5.3 -13.799987,-5.3 -19.099987,0 -5.3,5.3 -5.3,13.8 0,19.1 z m 262.80003,224.8 c -5.3,-5.3 -13.8,-5.3 -19.1,0 -5.3,5.3 -5.3,13.8 0,19.1 l 33.5,33.5 c 2.6,2.6 6.1,3.9 9.5,3.9 3.4,0 6.9,-1.3 9.5,-3.9 5.3,-5.3 5.3,-13.8 0,-19.09999 z"
         sodipodi:nodetypes="sssssssssssssssssssssccsscsccscsssccscssssscccscssscc" />
    </g>
  </g>
</svg>
