<?xml version="1.0" encoding="UTF-8" standalone="no"?>
<!-- Created with Inkscape (http://www.inkscape.org/) -->

<svg
   xmlns:dc="http://purl.org/dc/elements/1.1/"
   xmlns:cc="http://creativecommons.org/ns#"
   xmlns:rdf="http://www.w3.org/1999/02/22-rdf-syntax-ns#"
   xmlns:svg="http://www.w3.org/2000/svg"
   xmlns="http://www.w3.org/2000/svg"
   xmlns:sodipodi="http://sodipodi.sourceforge.net/DTD/sodipodi-0.dtd"
   xmlns:inkscape="http://www.inkscape.org/namespaces/inkscape"
   width="16.208mm"
   height="16.208mm"
   viewBox="0 0 16.208 16.208"
   version="1.1"
   id="svg8"
   inkscape:version="0.92.4 (5da689c313, 2019-01-14)"
   sodipodi:docname="pumpon.svg">
  <defs
     id="defs2"><style
   id="style4538"
   type="text/css">
   <![CDATA[
    .fil1 {fill:#030303}
    .fil0 {fill:#FDFDFD}
   ]]>
  </style>

  
  
 
   
   
   
   
   
  </defs>
  <sodipodi:namedview
     id="base"
     pagecolor="#ffffff"
     bordercolor="#666666"
     borderopacity="1.0"
     inkscape:pageopacity="0.0"
     inkscape:pageshadow="2"
     inkscape:zoom="11.2"
     inkscape:cx="12.661861"
     inkscape:cy="29.137224"
     inkscape:document-units="mm"
     inkscape:current-layer="layer1"
     showgrid="false"
     inkscape:window-width="1920"
     inkscape:window-height="1017"
     inkscape:window-x="-8"
     inkscape:window-y="-8"
     inkscape:window-maximized="1" />
  <metadata
     id="metadata5">
    <rdf:RDF>
      <cc:Work
         rdf:about="">
        <dc:format>image/svg+xml</dc:format>
        <dc:type
           rdf:resource="http://purl.org/dc/dcmitype/StillImage" />
        <dc:title></dc:title>
      </cc:Work>
    </rdf:RDF>
  </metadata>
  <g
     inkscape:label="Layer 1"
     inkscape:groupmode="layer"
     id="layer1"
     transform="translate(0,-280.792)">
    <path
       style="clip-rule:evenodd;fill:#00ccff;fill-opacity:1;fill-rule:evenodd;stroke-width:0.00562287;image-rendering:optimizeQuality;shape-rendering:geometricPrecision;text-rendering:geometricPrecision"
       inkscape:connector-curvature="0"
       class="fil1"
       d="m 7.6985752,284.67681 c 2.5752748,-0.32051 4.6838508,1.74309 4.9031428,3.96974 0.264275,2.63151 -1.681238,4.65574 -3.9641235,4.91439 -2.6090117,0.29239 -4.6669821,-1.68124 -4.9143884,-3.95287 -0.2755206,-2.55279 1.5181749,-4.622 3.9753691,-4.93126 z m -7.39407404,1.69248 c -0.0730973,0.28115 -0.0393601,0.83219 -0.0393601,1.16956 -0.005623,0.58478 0.13494888,0.51168 0.6747444,0.51168 0.75346454,-0.006 1.59689514,-0.0337 2.34473684,0.006 -0.1518175,0.75909 -0.1461947,1.36636 0,2.12545 -0.6016471,0.0281 -2.63150321,-0.10684 -2.97449828,0.0956 0,0 -0.29801211,1.7206 0.23616054,1.66437 0.38797803,-0.0337 0.24178341,-0.77034 0.24740628,-1.23141 H 3.4364398 c 0.5116811,1.76558 2.4234569,3.4187 4.756948,3.40183 2.4122112,-0.0169 4.0765812,-1.63063 4.6894732,-3.40183 h 2.603389 c 0.01125,0.47232 -0.146194,1.26514 0.286767,1.23141 0.387978,-0.0337 0.241783,-0.71973 0.247406,-1.28202 0,-0.53979 -0.185555,-0.47232 -0.674745,-0.47232 -0.76471,0.006 -1.535043,-0.006 -2.305376,0 0.11808,-0.96151 0.09559,-1.19205 0,-2.14231 0.792824,0.0281 1.608141,0 2.406588,0.006 0.551041,0.006 0.573533,-0.0562 0.573533,-0.60727 -0.0056,-0.38235 0.05061,-0.83781 -0.08997,-1.1077 -0.219292,-0.0562 -0.224915,-0.045 -0.427338,0.0281 l -0.02249,1.16393 -2.580897,0.006 c -0.455453,-1.09084 -0.899659,-1.74872 -1.70373,-2.37848 -1.7880723,-1.38885 -4.2902495,-1.34949 -6.0895679,0.0169 -0.8884134,0.67475 -1.2482771,1.36074 -1.6812381,2.35598 H 0.79931372 c -0.0224915,-0.41609 0.0562287,-0.88841 -0.0955888,-1.19204 -0.23053767,-0.0619 -0.21366906,-0.0506 -0.39922377,0.0337 z"
       id="path4545" />
    <path
       style="clip-rule:evenodd;fill:#00ccff;fill-opacity:1;fill-rule:evenodd;stroke-width:0.00562287;image-rendering:optimizeQuality;shape-rendering:geometricPrecision;text-rendering:geometricPrecision"
       inkscape:connector-curvature="0"
       class="fil1"
       d="m 8.3845654,291.44112 c -0.652253,-0.80407 -0.6972359,-1.1808 -0.2923893,-1.97925 0.1855547,0.0619 0.2080462,0.16869 0.4723211,0.29801 0.9896251,0.46108 1.2763915,0.12371 1.8780388,-0.0618 -0.264275,0.83781 -0.9671339,1.70373 -2.0579706,1.74309 z m -0.6916131,-0.0281 c -0.7815789,-0.0787 -1.4563233,-0.75909 -1.7318439,-1.45633 -0.219292,-0.57915 0.033737,-0.59602 0.4891897,-0.84343 0.5116811,-0.28114 0.7422188,-0.20242 1.2707686,-0.045 -0.1461946,0.34862 -0.4104695,0.63538 -0.3992238,1.21454 0.011246,0.56229 0.2024233,0.75909 0.3711094,1.1302 z M 5.848651,288.86585 c -0.022492,-0.96151 1.0289852,-2.02424 2.0073646,-2.05235 0.4835668,0.55666 0.6972359,1.16393 0.2642749,1.88366 -0.2305377,-0.0731 -0.3429951,-0.18555 -0.5679099,-0.23616 -0.6185157,-0.14057 -1.3213745,0.0618 -1.7037296,0.40485 z m 4.0428435,0.50605 c -0.2867664,0.0787 -0.517304,0.14058 -0.8265619,0.0337 -0.022492,-0.006 -0.084343,-0.0337 -0.1012116,-0.045 l -0.1180803,-0.0562 -0.2024233,-0.10121 c -0.056229,-0.0394 -0.1068346,-0.0787 -0.1630633,-0.11246 0.073097,-0.17431 0.1911776,-0.29239 0.2811435,-0.50606 0.073097,-0.17993 0.1124574,-0.38235 0.1180803,-0.61289 0.011246,-0.56791 -0.1799318,-0.77596 -0.3486179,-1.16393 1.0121166,0.13495 1.984873,1.10208 1.962382,2.21541 -0.157441,0.10121 -0.399224,0.26989 -0.6016475,0.34861 z m 1.0908365,0.28115 c 0.461076,-2.77208 -2.6652401,-4.31274 -4.5601473,-2.82268 -2.0973305,1.6475 -1.0627224,4.76257 1.2482772,5.12243 1.7093524,0.26428 3.0869551,-0.93339 3.3118701,-2.29975 z"
       id="path4547" />
    <path
       style="clip-rule:evenodd;fill:#00ccff;fill-opacity:1;fill-rule:evenodd;stroke-width:0.00562287;image-rendering:optimizeQuality;shape-rendering:geometricPrecision;text-rendering:geometricPrecision"
       inkscape:connector-curvature="0"
       class="fil1"
       d="m 15.030798,288.86022 c -0.326127,0 -0.652253,0 -0.97838,0 -0.303635,-0.006 -0.680367,-0.0787 -0.674744,0.25866 0.01125,0.34299 0.410469,0.26427 0.719727,0.26427 0.314881,-0.006 0.629762,-0.006 0.950265,0 -0.1968,0.38236 0.08434,0.62976 0.326127,0.44421 0.08434,-0.0675 0.483567,-0.56229 0.494812,-0.6635 0.02811,-0.1968 -0.292389,-0.52293 -0.421715,-0.66912 -0.253029,-0.27552 -0.60727,-0.13495 -0.416092,0.36548 z"
       id="path4549" />
    <path
       style="clip-rule:evenodd;fill:#00ccff;fill-opacity:1;fill-rule:evenodd;stroke-width:0.00562287;image-rendering:optimizeQuality;shape-rendering:geometricPrecision;text-rendering:geometricPrecision"
       inkscape:connector-curvature="0"
       class="fil1"
       d="m 2.0532137,288.86022 c -0.3261264,-0.006 -0.64663,0 -0.9727565,0 -0.3148807,-0.006 -0.68036725,-0.0787 -0.67474438,0.25866 0.005623,0.34299 0.41046951,0.26427 0.72535018,0.26427 0.3148808,-0.006 0.6297615,-0.006 0.9390193,0 -0.1349488,0.24178 -0.1068345,0.42172 0.1630633,0.51168 0.2249148,-0.0562 0.3261264,-0.27552 0.4723211,-0.4442 0.1686861,-0.19118 0.2923892,-0.32613 0.073097,-0.58478 -0.07872,-0.0956 -0.3542408,-0.44421 -0.432961,-0.47795 -0.3317494,-0.14619 -0.4104695,0.17993 -0.292389,0.47232 z"
       id="path4551" />
  </g>
</svg>
