<?xml version="1.0" encoding="UTF-8" standalone="no"?>
<!-- Created with Inkscape (http://www.inkscape.org/) -->

<svg
   xmlns:dc="http://purl.org/dc/elements/1.1/"
   xmlns:cc="http://creativecommons.org/ns#"
   xmlns:rdf="http://www.w3.org/1999/02/22-rdf-syntax-ns#"
   xmlns:svg="http://www.w3.org/2000/svg"
   xmlns="http://www.w3.org/2000/svg"
   xmlns:sodipodi="http://sodipodi.sourceforge.net/DTD/sodipodi-0.dtd"
   xmlns:inkscape="http://www.inkscape.org/namespaces/inkscape"
   width="60.13768"
   height="60.776516"
   viewBox="0 0 60.137677 60.776516"
   id="svg4160"
   version="1.1"
   inkscape:version="0.92.4 (5da689c313, 2019-01-14)"
   sodipodi:docname="status.svg">
  <defs
     id="defs4162">
    <clipPath
       clipPathUnits="userSpaceOnUse"
       id="clipPath721">
      <g
         inkscape:label="Clip"
         id="use723">
        <path
           inkscape:connector-curvature="0"
           id="path9386"
           d="m -129.40786,25.62657 c -0.13696,-0.135591 -2.72074,-1.618539 -5.74173,-3.295443 -3.02099,-1.676905 -5.59214,-3.137354 -5.71368,-3.245444 -0.20866,-0.18558 -0.22097,-1.292503 -0.22097,-19.87202015 V -20.461831 l 0.28411,-0.177783 c 0.15626,-0.09778 2.72741,-0.9883 5.71367,-1.978933 2.98627,-0.990633 5.57163,-1.911698 5.74525,-2.046809 0.27565,-0.214519 0.44371,-0.23565 1.32582,-0.166702 3.44592,0.269344 27.94537,2.090854 28.126435,2.091173 0.121534,2.14e-4 0.334613,0.114031 0.473509,0.252927 0.250623,0.250623 0.252538,0.420897 0.252538,22.45175985 0,18.35724515 -0.02929,22.23927615 -0.169231,22.43066015 -0.14913,0.203947 -1.877661,0.423991 -14.552511,1.852549 -7.9108,0.891612 -14.58373,1.622231 -14.82873,1.623598 -0.27526,0.0015 -0.54059,-0.0917 -0.69448,-0.244039 z m 15.1558,-2.594465 c 7.15314,-0.799106 13.19038,-1.483733 13.41609,-1.521396 l 0.41037,-0.06848 V -0.01206415 -21.466362 l -0.41037,-0.06514 c -0.22571,-0.03583 -6.23454,-0.492882 -13.35296,-1.015681 -7.11842,-0.522798 -13.18407,-0.982522 -13.47922,-1.021608 l -0.53664,-0.07107 V 0.49636685 24.632595 l 0.47351,-0.07379 c 0.26043,-0.04058 6.32608,-0.727602 13.47922,-1.526708 z M -129.59375,0.35823385 c 0,-22.31851285 -0.0111,-23.49101685 -0.22097,-23.42387585 -0.12154,0.03887 -2.40859,0.80041 -5.08233,1.692303 l -4.86136,1.621623 V -0.69966915 18.352379 l 4.92449,2.744478 c 2.70847,1.509464 4.99552,2.747056 5.08233,2.750206 0.12572,0.0046 0.15784,-4.77431 0.15784,-23.48882915 z"
           style="fill:#00ccff;fill-opacity:1;stroke-width:0.12626907" />
        <path
           inkscape:connector-curvature="0"
           id="path9388"
           d="m -135.27586,12.406429 c -1.59006,-0.576336 -2.67375,-1.039072 -2.80949,-1.199649 -0.20737,-0.245321 -0.22097,-1.073123 -0.22097,-13.4482811 V -15.428369 l 0.28821,-0.28821 c 0.23832,-0.238315 0.76952,-0.380922 3.06845,-0.823758 2.4071,-0.463672 2.82725,-0.514129 3.13052,-0.375949 0.74626,0.340018 0.71016,-0.43288 0.71016,15.2030319 0.12113,8.8150049 -0.10399,10.9233588 -0.3691,14.7166161 -0.27015,0.270151 -0.4817,0.36537 -0.78918,0.3552 -0.23105,-0.0076 -1.58492,-0.436101 -3.0086,-0.952133 z m 2.90422,-17.1677501 V -15.789384 l -0.41038,0.08347 c -0.2257,0.04591 -1.2911,0.260135 -2.36754,0.476062 l -1.95717,0.392596 V -2.2187321 10.399793 c 1.54389,0.572782 1.5416,0.579962 4.64039,1.696425 0.0521,0.0075 0.0947,-1.211929 0.0947,-2.7097418 0.067,-4.4234883 0,-8.3794909 0,-14.1477973 z"
           style="fill:#00ccff;fill-opacity:1;stroke-width:0.12626907"
           sodipodi:nodetypes="ccsccsccccccccscccccc" />
        <path
           inkscape:connector-curvature="0"
           id="path9390"
           d="m -124.11112,13.105231 c -0.14444,-0.07205 -0.35752,-0.291651 -0.47351,-0.488009 -0.19368,-0.327875 -0.2109,-1.527673 -0.2109,-14.6986491 V -16.423059 l 0.36857,-0.412366 c 0.45023,-0.503736 -0.76622,-0.535696 10.93251,0.287224 9.93203,0.698644 9.62452,0.655736 10.00497,1.396021 0.12072,0.234912 0.15639,3.193668 0.15783,13.0922989 0.002,13.9467461 0.0265,13.4717141 -0.70865,13.7665701 -0.19953,0.08003 -4.39707,0.42929 -9.32788,0.776138 -4.9308,0.34685 -9.30603,0.658257 -9.72272,0.692016 -0.41668,0.03376 -0.87579,0.0024 -1.02022,-0.06961 z m 1.36746,-1.20278 0.47351,-0.07827 V 8.6674598 5.5107329 l -0.47351,0.07827 c -0.26043,0.04305 -0.54453,0.07889 -0.63134,0.07966 -0.12202,0.0011 -0.15784,0.717656 -0.15784,3.158117 0,2.4419431 0.0357,3.1564121 0.15784,3.1553361 0.0868,-7.57e-4 0.37091,-0.03661 0.63134,-0.07966 z m 9.56489,-0.676568 c 3.99326,-0.276572 7.55878,-0.535856 7.92338,-0.576187 l 0.66291,-0.07333 V -2.0414551 c 0,-6.939801 -0.0426,-12.6182329 -0.0947,-12.6187359 -0.0521,-5.05e-4 -1.22141,-0.08631 -2.59851,-0.190678 -1.37709,-0.104369 -2.55613,-0.157425 -2.62008,-0.117902 -0.0639,0.03952 -0.11628,0.434016 -0.11628,0.876649 0,0.981605 -0.0407,1.003359 -1.64395,0.877941 l -1.13396,-0.08871 v 0.525419 c 0,0.69142 -0.284,1.34466 -0.79518,1.829028 -0.22806,0.216101 -0.5904,0.648607 -0.80519,0.9611229 -0.2148,0.312516 -0.5108,0.676454 -0.65778,0.808751 -0.3669,0.330252 -0.34171,0.391651 0.23107,0.563261 0.89523,0.268219 1.32737,1.201173 0.73282,1.582122 -0.15626,0.10012 -0.53133,0.247217 -0.8335,0.326882 -0.30216,0.07967 -0.52945,0.164259 -0.50507,0.187986 0.0244,0.02373 0.71131,0.309751 1.52653,0.635609 l 1.48223,0.592468 0.033,5.00604895 0.033,5.00604905 0.88388,-0.02895 c 0.48614,-0.01592 1.92087,-0.06553 3.18829,-0.110241 l 2.30441,-0.08129 v 2.9834465 c 0,2.5677726 -0.0264,3.5516556 -0.1894,3.5516556 -0.16263,0 -0.1894,-0.961439 -0.1894,-3.3496466 V 4.9053939 l -0.78918,0.06534 c -0.43405,0.03593 -3.65865,0.15396 -7.16577,0.262278 -3.50713,0.10832 -6.61808,0.226036 -6.91324,0.261592 l -0.53664,0.06465 v 3.1580755 3.1580756 l 0.66291,-0.07333 c 0.36461,-0.04033 3.93013,-0.299615 7.92339,-0.576188 z m -7.54458,-6.1765301 1.35739,-0.01065 V -0.11621115 -5.2711231 l 1.53471,-0.60981 c 0.84409,-0.335396 1.63659,-0.71169 1.76111,-0.836208 0.12452,-0.124518 0.47088,-0.288155 0.7697,-0.363638 0.99304,-0.250847 1.13905,-0.346305 0.9811,-0.64144 -0.0769,-0.143759 -0.38496,-0.366431 -0.68449,-0.494826 -0.53904,-0.231058 -0.95286,-0.65885 -0.95286,-0.985022 0,-0.189348 -0.55476,-0.9353999 -1.34744,-1.8120659 -0.58606,-0.648162 -0.8637,-1.430522 -0.74056,-2.086881 l 0.0791,-0.421836 h -0.96104 c -1.38956,0 -1.44952,-0.05194 -1.44952,-1.255799 v -0.994374 l -1.10485,-0.07784 c -0.60767,-0.04281 -1.31794,-0.105404 -1.57837,-0.139097 l -0.4735,-0.06126 v 10.6463149 10.646315 l 0.72604,-0.0907 c 0.39933,-0.04988 1.33688,-0.0955 2.08344,-0.101356 z m 4.76666,-1.21021 c 0,-0.590308 -0.0142,-1.072194 -0.0316,-1.070857 -0.0174,0.0013 -0.71342,0.250845 -1.5468,0.554464 l -1.51523,0.552033 -0.0388,0.518823 -0.0388,0.518824 h 1.58562 1.58563 z m 3.38532,0.487082 -0.0392,-0.459935 -1.5468,-0.546977 -1.5468,-0.546976 v 1.006912 1.006912 h 1.58599 1.58599 z m -4.71527,-1.30498 c 1.15098,-0.425012 1.27057,-0.49954 1.30788,-0.815053 0.0473,-0.400218 0.20164,-0.424677 -1.7457,0.276703 -1.22515,0.441267 -1.32894,0.504575 -1.36689,0.83371 -0.0477,0.413518 -0.1686,0.433308 1.80471,-0.29536 z m 4.71603,0.292751 c -0.0358,-0.300984 -0.17111,-0.384174 -1.30677,-0.80353 -1.97371,-0.728819 -1.85238,-0.709025 -1.80471,-0.294426 0.0382,0.33215 0.14258,0.39414 1.49316,0.886723 0.79866,0.291284 1.49849,0.533514 1.55519,0.538291 0.0567,0.0048 0.0851,-0.1424 0.0631,-0.327058 z m -3.40926,-1.982193 c 0.022,-0.183544 0.002,-0.33371405 -0.0439,-0.33371405 -0.0461,0 -0.76014,0.24093105 -1.58675,0.53540405 -1.42273,0.506831 -1.50294,0.553829 -1.50294,0.880643 v 0.345238 l 1.5468,-0.546929 c 1.41248,-0.499437 1.55027,-0.575907 1.58675,-0.880642 z m 3.43244,1.081856 c 0,-0.33552 -0.0673,-0.375385 -1.42053,-0.841973 -0.78129,-0.269377 -1.49608,-0.516454 -1.58842,-0.549058 -0.11932,-0.0421301 -0.15586,0.04266 -0.12627,0.293071 0.0384,0.325474 0.1524,0.393177 1.49372,0.887533 0.79866,0.29435 1.49471,0.541355 1.5468,0.548902 0.0521,0.0076 0.0947,-0.144766 0.0947,-0.338475 z m -3.7565,-1.56071705 c 0.2428,-0.09652 0.34724,-0.228366 0.34724,-0.438383 0,-0.165194 -0.0426,-0.300542 -0.0947,-0.300772 -0.0521,-2.52e-4 -0.76235,0.234792 -1.57837,0.522272 -1.41983,0.50020105 -1.48366,0.53801205 -1.48366,0.87884905 v 0.356159 l 1.23113,-0.440047 c 0.67711,-0.242027 1.38738,-0.50216105 1.57836,-0.57807805 z m 3.7565,0.67608505 c 0,-0.336157 -0.0706,-0.378292 -1.48366,-0.88579205 -0.81601,-0.293067 -1.52628,-0.53199 -1.57836,-0.530939 -0.0521,0.001 -0.0947,0.139262 -0.0947,0.307138 0,0.243809 0.10798,0.345131 0.53664,0.503522 2.15533,0.79640405 2.56058,0.94541805 2.58852,0.95180105 0.0174,0.004 0.0316,-0.15161 0.0316,-0.34573 z m -4.87497,-1.17884105 c 1.40122,-0.498684 1.46571,-0.537331 1.46571,-0.878432 v -0.356797 l -1.23113,0.449874 c -0.67711,0.247429 -1.38738,0.506229 -1.57836,0.57511 -0.24768,0.08933 -0.34724,0.212203 -0.34724,0.428559 0,0.166825 0.0507,0.303319 0.11266,0.303319 0.062,0 0.77223,-0.234735 1.57836,-0.521633 z m 4.87497,0.22288 c 0,-0.251882 -0.12382,-0.343484 -0.78918,-0.583851 -0.43405,-0.156803 -1.14431,-0.417565 -1.57836,-0.579471 l -0.78919,-0.294374 v 0.360201 c 0,0.34445 0.0621,0.382557 1.42053,0.871412 0.78129,0.281166 1.49156,0.514277 1.57837,0.518023 0.0868,0.0038 0.15783,-0.127625 0.15783,-0.29194 z m -4.91219,-1.120535 c 1.42272,-0.50682995 1.50293,-0.55382895 1.50293,-0.88064195 v -0.345239 l -1.5468,0.54693 c -1.41248,0.49943695 -1.55027,0.57590695 -1.58675,0.88064195 -0.022,0.183543 -0.002,0.333714 0.0439,0.333714 0.0461,0 0.76014,-0.240932 1.58675,-0.535405 z m 4.88901,0.201691 c -0.0365,-0.304735 -0.17427,-0.381205 -1.58675,-0.88064195 l -1.5468,-0.54693 v 0.35003 c 0,0.331008 0.0772,0.37825 1.42053,0.86936495 1.72661,0.631238 1.76422,0.635809 1.71302,0.208177 z m -4.80729,-1.13072095 c 1.35587,-0.470532 1.41988,-0.508767 1.42053,-0.848485 5.4e-4,-0.283109 -0.0444,-0.340556 -0.22029,-0.281344 -2.53888,0.854879 -2.87223,1.012811 -2.91426,1.380706 -0.0298,0.26123195 0.006,0.34706595 0.12627,0.30313795 0.0923,-0.0337 0.80683,-0.28300995 1.58775,-0.55401495 z m 4.80729,0.242342 c -0.0361,-0.305976 -0.16631,-0.384084 -1.36578,-0.81956 -0.7292,-0.264744 -1.42526,-0.514126 -1.54679,-0.554184 -0.17546,-0.05783 -0.22098,6.31e-4 -0.22098,0.28354 0,0.340795 0.0649,0.37946 1.48367,0.88457 0.81601,0.290509 1.53005,0.53171795 1.58675,0.53602095 0.0567,0.0043 0.0851,-0.14437195 0.0631,-0.33038695 z m -4.96445,-1.097664 c 1.39602,-0.504695 1.51846,-0.574942 1.55626,-0.892865 0.0482,-0.405531 0.1617,-0.421762 -1.71428,0.245166 -1.34305,0.477468 -1.42034,0.523848 -1.42034,0.852317 0,0.191055 0.0142,0.346428 0.0316,0.345273 0.0174,-0.0011 0.71342,-0.248606 1.5468,-0.549891 z m 4.98695,0.20475 c -6.4e-4,-0.328875 -0.0758,-0.373299 -1.42052,-0.839976 -0.78092,-0.271005 -1.49541,-0.520312 -1.58775,-0.554014 -0.12004,-0.04381 -0.15603,0.04097 -0.12627,0.29739 0.0388,0.334123 0.141,0.394826 1.49372,0.887036 0.79866,0.290604 1.49471,0.534768 1.5468,0.542586 0.0521,0.0078 0.0944,-0.14204 0.094,-0.333022 z m -3.62955,-1.611802 c 0.21259,-0.08494 0.32323,-0.692156 0.12626,-0.693026 -0.0521,-2.53e-4 -0.76234,0.234792 -1.57836,0.522271 -1.42207,0.500992 -1.48366,0.537544 -1.48366,0.880543 v 0.357851 l 1.35739,-0.489679 c 0.74657,-0.269323 1.45683,-0.529406 1.57837,-0.57796 z m 3.63023,0.722214 c 0,-0.336158 -0.0706,-0.378292 -1.48366,-0.885793 -0.81601,-0.293067 -1.53005,-0.531989 -1.58675,-0.530939 -0.0567,10e-4 -0.0851,0.151017 -0.0631,0.333259 0.0362,0.300634 0.18041,0.381806 1.55518,0.875692 0.83338,0.299389 1.52944,0.548029 1.5468,0.552534 0.0174,0.0045 0.0316,-0.150633 0.0316,-0.344753 z m -4.87497,-1.178842 c 1.3108,-0.466505 1.46571,-0.553245 1.46571,-0.820749 0,-0.164513 -0.0462,-0.299115 -0.10259,-0.299115 -0.0936,0 -1.64542,0.519251 -2.64377,0.884656 -0.30741,0.112516 -0.41037,0.226304 -0.41037,0.453522 0,0.166826 0.0507,0.30332 0.11266,0.30332 0.062,0 0.77223,-0.234735 1.57836,-0.521634 z m 4.87497,0.219698 c 0,-0.270135 -0.14297,-0.352113 -1.35739,-0.77832 -0.74657,-0.262011 -1.45683,-0.525886 -1.57836,-0.58639 -0.18498,-0.09209 -0.22098,-0.05027 -0.22098,0.256729 0,0.350566 0.0598,0.389124 1.3574,0.874537 1.64315,0.614707 1.79933,0.63497 1.79933,0.233444 z m -4.89633,-1.112648 c 1.41617,-0.505399 1.48707,-0.547487 1.48707,-0.882799 v -0.352097 l -0.85232,0.325967 c -0.46877,0.179282 -1.17904,0.445818 -1.57836,0.592303 -0.59631,0.218746 -0.72605,0.318245 -0.72605,0.556832 0,0.159772 0.0411,0.290495 0.0913,0.290495 0.0502,0 0.76047,-0.238816 1.57836,-0.530701 z m 4.87355,0.251152 c -0.0321,-0.222447 -0.25959,-0.364479 -1.11364,-0.69534 -0.59031,-0.228686 -1.28637,-0.500177 -1.5468,-0.603313 l -0.47351,-0.187521 v 0.352248 c 0,0.333834 0.0743,0.379394 1.42053,0.871584 1.68859,0.617336 1.76637,0.629246 1.71342,0.262342 z"
           style="fill:#00ccff;fill-opacity:1;stroke-width:0.12626907"
           sodipodi:nodetypes="ccsccscccscccccccccsccccccscccsccscccsccccccccccsssccscccccccccccsscccscccsscccccccccccscccccccccccccccscscsccccccccscsccccscccccscsccsccccccscccccscccsscscccsccscscscscccscsccsccccscccsccccccssccccccccccccccsccccccccccccsscsscsccscscscccsscccccscc" />
      </g>
    </clipPath>
  </defs>
  <sodipodi:namedview
     id="base"
     pagecolor="#ffffff"
     bordercolor="#666666"
     borderopacity="1.0"
     inkscape:pageopacity="0.0"
     inkscape:pageshadow="2"
     inkscape:zoom="11.2"
     inkscape:cx="48.181022"
     inkscape:cy="26.054283"
     inkscape:document-units="px"
     inkscape:current-layer="layer7"
     showgrid="true"
     units="in"
     showguides="false"
     inkscape:window-width="1920"
     inkscape:window-height="1080"
     inkscape:window-x="0"
     inkscape:window-y="0"
     inkscape:window-maximized="0"
     inkscape:snap-bbox="true"
     inkscape:snap-global="false">
    <inkscape:grid
       type="xygrid"
       id="grid4712"
       originx="-9.9771178"
       originy="-29.820954" />
  </sodipodi:namedview>
  <metadata
     id="metadata4165">
    <rdf:RDF>
      <cc:Work
         rdf:about="">
        <dc:format>image/svg+xml</dc:format>
        <dc:type
           rdf:resource="http://purl.org/dc/dcmitype/StillImage" />
        <dc:title />
      </cc:Work>
    </rdf:RDF>
  </metadata>
  <g
     inkscape:groupmode="layer"
     id="layer7"
     inkscape:label="Status"
     style="display:inline">
    <path
       style="fill:#00ccff;fill-opacity:1;stroke-width:0.17857143"
       d=""
       id="path696"
       inkscape:connector-curvature="0" />
    <path
       inkscape:connector-curvature="0"
       id="path708"
       d="M 19.52071,53.12657 C 19.38375,52.990979 16.79997,51.508031 13.77898,49.831127 10.75799,48.154222 8.18684,46.693773 8.0653,46.585683 7.85664,46.400103 7.84433,45.29318 7.84433,26.713663 V 7.038169 L 8.12844,6.860386 c 0.15626,-0.09778 2.72741,-0.9883 5.71367,-1.978933 2.98627,-0.990633 5.57163,-1.911698 5.74525,-2.046809 0.27565,-0.214519 0.44371,-0.23565 1.32582,-0.166702 3.44592,0.269344 27.94537,2.090854 28.126435,2.091173 0.121534,2.14e-4 0.334613,0.114031 0.473509,0.252927 0.250623,0.250623 0.252538,0.420897 0.252538,22.45176 0,18.357245 -0.02929,22.239276 -0.169231,22.43066 -0.14913,0.203947 -1.877661,0.423991 -14.552511,1.852549 -7.9108,0.891612 -14.58373,1.622231 -14.82873,1.623598 -0.27526,0.0015 -0.54059,-0.0917 -0.69448,-0.244039 z m 15.1558,-2.594465 c 7.15314,-0.799106 13.19038,-1.483733 13.41609,-1.521396 l 0.41037,-0.06848 V 27.487936 6.033638 L 48.0926,5.968498 C 47.86689,5.932668 41.85806,5.475616 34.73964,4.952817 27.62122,4.430019 21.55557,3.970295 21.26042,3.931209 l -0.53664,-0.07107 v 24.136228 24.136228 l 0.47351,-0.07379 c 0.26043,-0.04058 6.32608,-0.727602 13.47922,-1.526708 z M 19.33482,27.858234 c 0,-22.318513 -0.0111,-23.491017 -0.22097,-23.423876 -0.12154,0.03887 -2.40859,0.80041 -5.08233,1.692303 L 9.17016,7.748284 v 19.052047 19.052048 l 4.92449,2.744478 c 2.70847,1.509464 4.99552,2.747056 5.08233,2.750206 0.12572,0.0046 0.15784,-4.77431 0.15784,-23.488829 z"
       style="fill:#00ccff;fill-opacity:1;stroke-width:0.12626907" />
    <path
       inkscape:connector-curvature="0"
       id="path712"
       d="m 24.81745,40.605231 c -0.14444,-0.07205 -0.35752,-0.291651 -0.47351,-0.488009 -0.19368,-0.327875 -0.2109,-1.527673 -0.2109,-14.698649 V 11.076941 l 0.36857,-0.412366 c 0.45023,-0.503736 -0.76622,-0.535696 10.93251,0.287224 9.93203,0.698644 9.62452,0.655736 10.00497,1.396021 0.12072,0.234912 0.15639,3.193668 0.15783,13.092299 0.002,13.946746 0.0265,13.471714 -0.70865,13.76657 -0.19953,0.08003 -4.39707,0.42929 -9.32788,0.776138 -4.9308,0.34685 -9.30603,0.658257 -9.72272,0.692016 -0.41668,0.03376 -0.87579,0.0024 -1.02022,-0.06961 z m 1.36746,-1.20278 0.47351,-0.07827 V 36.16746 33.010733 l -0.47351,0.07827 c -0.26043,0.04305 -0.54453,0.07889 -0.63134,0.07966 -0.12202,0.0011 -0.15784,0.717656 -0.15784,3.158117 0,2.441943 0.0357,3.156412 0.15784,3.155336 0.0868,-7.57e-4 0.37091,-0.03661 0.63134,-0.07966 z m 9.56489,-0.676568 c 3.99326,-0.276572 7.55878,-0.535856 7.92338,-0.576187 l 0.66291,-0.07333 V 25.458545 c 0,-6.939801 -0.0426,-12.618233 -0.0947,-12.618736 -0.0521,-5.05e-4 -1.22141,-0.08631 -2.59851,-0.190678 -1.37709,-0.104369 -2.55613,-0.157425 -2.62008,-0.117902 -0.0639,0.03952 -0.11628,0.434016 -0.11628,0.876649 0,0.981605 -0.0407,1.003359 -1.64395,0.877941 l -1.13396,-0.08871 v 0.525419 c 0,0.69142 -0.284,1.34466 -0.79518,1.829028 -0.22806,0.216101 -0.5904,0.648607 -0.80519,0.961123 -0.2148,0.312516 -0.5108,0.676454 -0.65778,0.808751 -0.3669,0.330252 -0.34171,0.391651 0.23107,0.563261 0.89523,0.268219 1.32737,1.201173 0.73282,1.582122 -0.15626,0.10012 -0.53133,0.247217 -0.8335,0.326882 -0.30216,0.07967 -0.52945,0.164259 -0.50507,0.187986 0.0244,0.02373 0.71131,0.309751 1.52653,0.635609 l 1.48223,0.592468 0.033,5.006049 0.033,5.006049 0.88388,-0.02895 c 0.48614,-0.01592 1.92087,-0.06553 3.18829,-0.110241 l 2.30441,-0.08129 v 2.983446 c 0,2.567773 -0.0264,3.551656 -0.1894,3.551656 -0.16263,0 -0.1894,-0.961439 -0.1894,-3.349647 v -2.781436 l -0.78918,0.06534 c -0.43405,0.03593 -3.65865,0.15396 -7.16577,0.262278 -3.50713,0.10832 -6.61808,0.226036 -6.91324,0.261592 l -0.53664,0.06465 v 3.158075 3.158076 l 0.66291,-0.07333 c 0.36461,-0.04033 3.93013,-0.299615 7.92339,-0.576188 z m -7.54458,-6.17653 1.35739,-0.01065 v -5.154914 -5.154912 l 1.53471,-0.60981 c 0.84409,-0.335396 1.63659,-0.71169 1.76111,-0.836208 0.12452,-0.124518 0.47088,-0.288155 0.7697,-0.363638 0.99304,-0.250847 1.13905,-0.346305 0.9811,-0.64144 -0.0769,-0.143759 -0.38496,-0.366431 -0.68449,-0.494826 -0.53904,-0.231058 -0.95286,-0.65885 -0.95286,-0.985022 0,-0.189348 -0.55476,-0.9354 -1.34744,-1.812066 -0.58606,-0.648162 -0.8637,-1.430522 -0.74056,-2.086881 l 0.0791,-0.421836 h -0.96104 c -1.38956,0 -1.44952,-0.05194 -1.44952,-1.255799 v -0.994374 l -1.10485,-0.07784 C 26.8399,11.606327 26.12963,11.543733 25.8692,11.51004 L 25.3957,11.44878 V 22.095095 32.74141 l 0.72604,-0.0907 c 0.39933,-0.04988 1.33688,-0.0955 2.08344,-0.101356 z m 4.76666,-1.21021 c 0,-0.590308 -0.0142,-1.072194 -0.0316,-1.070857 -0.0174,0.0013 -0.71342,0.250845 -1.5468,0.554464 l -1.51523,0.552033 -0.0388,0.518823 -0.0388,0.518824 h 1.58562 1.58563 z M 36.3572,31.826225 36.318,31.36629 34.7712,30.819313 33.2244,30.272337 v 1.006912 1.006912 h 1.58599 1.58599 z m -4.71527,-1.30498 c 1.15098,-0.425012 1.27057,-0.49954 1.30788,-0.815053 0.0473,-0.400218 0.20164,-0.424677 -1.7457,0.276703 -1.22515,0.441267 -1.32894,0.504575 -1.36689,0.83371 -0.0477,0.413518 -0.1686,0.433308 1.80471,-0.29536 z m 4.71603,0.292751 c -0.0358,-0.300984 -0.17111,-0.384174 -1.30677,-0.80353 -1.97371,-0.728819 -1.85238,-0.709025 -1.80471,-0.294426 0.0382,0.33215 0.14258,0.39414 1.49316,0.886723 0.79866,0.291284 1.49849,0.533514 1.55519,0.538291 0.0567,0.0048 0.0851,-0.1424 0.0631,-0.327058 z M 32.9487,28.831803 c 0.022,-0.183544 0.002,-0.333714 -0.0439,-0.333714 -0.0461,0 -0.76014,0.240931 -1.58675,0.535404 -1.42273,0.506831 -1.50294,0.553829 -1.50294,0.880643 v 0.345238 l 1.5468,-0.546929 c 1.41248,-0.499437 1.55027,-0.575907 1.58675,-0.880642 z m 3.43244,1.081856 c 0,-0.33552 -0.0673,-0.375385 -1.42053,-0.841973 -0.78129,-0.269377 -1.49608,-0.516454 -1.58842,-0.549058 -0.11932,-0.04213 -0.15586,0.04266 -0.12627,0.293071 0.0384,0.325474 0.1524,0.393177 1.49372,0.887533 0.79866,0.29435 1.49471,0.541355 1.5468,0.548902 0.0521,0.0076 0.0947,-0.144766 0.0947,-0.338475 z m -3.7565,-1.560717 c 0.2428,-0.09652 0.34724,-0.228366 0.34724,-0.438383 0,-0.165194 -0.0426,-0.300542 -0.0947,-0.300772 -0.0521,-2.52e-4 -0.76235,0.234792 -1.57837,0.522272 -1.41983,0.500201 -1.48366,0.538012 -1.48366,0.878849 v 0.356159 l 1.23113,-0.440047 c 0.67711,-0.242027 1.38738,-0.502161 1.57836,-0.578078 z m 3.7565,0.676085 c 0,-0.336157 -0.0706,-0.378292 -1.48366,-0.885792 -0.81601,-0.293067 -1.52628,-0.53199 -1.57836,-0.530939 -0.0521,10e-4 -0.0947,0.139262 -0.0947,0.307138 0,0.243809 0.10798,0.345131 0.53664,0.503522 2.15533,0.796404 2.56058,0.945418 2.58852,0.951801 0.0174,0.004 0.0316,-0.15161 0.0316,-0.34573 z m -4.87497,-1.178841 c 1.40122,-0.498684 1.46571,-0.537331 1.46571,-0.878432 v -0.356797 l -1.23113,0.449874 c -0.67711,0.247429 -1.38738,0.506229 -1.57836,0.57511 -0.24768,0.08933 -0.34724,0.212203 -0.34724,0.428559 0,0.166825 0.0507,0.303319 0.11266,0.303319 0.062,0 0.77223,-0.234735 1.57836,-0.521633 z m 4.87497,0.22288 c 0,-0.251882 -0.12382,-0.343484 -0.78918,-0.583851 C 35.15791,27.332412 34.44765,27.07165 34.0136,26.909744 L 33.22441,26.61537 v 0.360201 c 0,0.34445 0.0621,0.382557 1.42053,0.871412 0.78129,0.281166 1.49156,0.514277 1.57837,0.518023 0.0868,0.0038 0.15783,-0.127625 0.15783,-0.29194 z m -4.91219,-1.120535 c 1.42272,-0.50683 1.50293,-0.553829 1.50293,-0.880642 V 25.72665 l -1.5468,0.54693 c -1.41248,0.499437 -1.55027,0.575907 -1.58675,0.880642 -0.022,0.183543 -0.002,0.333714 0.0439,0.333714 0.0461,0 0.76014,-0.240932 1.58675,-0.535405 z m 4.88901,0.201691 c -0.0365,-0.304735 -0.17427,-0.381205 -1.58675,-0.880642 l -1.5468,-0.54693 v 0.35003 c 0,0.331008 0.0772,0.37825 1.42053,0.869365 1.72661,0.631238 1.76422,0.635809 1.71302,0.208177 z m -4.80729,-1.130721 c 1.35587,-0.470532 1.41988,-0.508767 1.42053,-0.848485 5.4e-4,-0.283109 -0.0444,-0.340556 -0.22029,-0.281344 -2.53888,0.854879 -2.87223,1.012811 -2.91426,1.380706 -0.0298,0.261232 0.006,0.347066 0.12627,0.303138 0.0923,-0.0337 0.80683,-0.28301 1.58775,-0.554015 z m 4.80729,0.242342 c -0.0361,-0.305976 -0.16631,-0.384084 -1.36578,-0.81956 -0.7292,-0.264744 -1.42526,-0.514126 -1.54679,-0.554184 -0.17546,-0.05783 -0.22098,6.31e-4 -0.22098,0.28354 0,0.340795 0.0649,0.37946 1.48367,0.88457 0.81601,0.290509 1.53005,0.531718 1.58675,0.536021 0.0567,0.0043 0.0851,-0.144372 0.0631,-0.330387 z m -4.96445,-1.097664 c 1.39602,-0.504695 1.51846,-0.574942 1.55626,-0.892865 0.0482,-0.405531 0.1617,-0.421762 -1.71428,0.245166 -1.34305,0.477468 -1.42034,0.523848 -1.42034,0.852317 0,0.191055 0.0142,0.346428 0.0316,0.345273 0.0174,-0.0011 0.71342,-0.248606 1.5468,-0.549891 z m 4.98695,0.20475 c -6.4e-4,-0.328875 -0.0758,-0.373299 -1.42052,-0.839976 -0.78092,-0.271005 -1.49541,-0.520312 -1.58775,-0.554014 -0.12004,-0.04381 -0.15603,0.04097 -0.12627,0.29739 0.0388,0.334123 0.141,0.394826 1.49372,0.887036 0.79866,0.290604 1.49471,0.534768 1.5468,0.542586 0.0521,0.0078 0.0944,-0.14204 0.094,-0.333022 z m -3.62955,-1.611802 c 0.21259,-0.08494 0.32323,-0.692156 0.12626,-0.693026 -0.0521,-2.53e-4 -0.76234,0.234792 -1.57836,0.522271 -1.42207,0.500992 -1.48366,0.537544 -1.48366,0.880543 v 0.357851 l 1.35739,-0.489679 c 0.74657,-0.269323 1.45683,-0.529406 1.57837,-0.57796 z m 3.63023,0.722214 c 0,-0.336158 -0.0706,-0.378292 -1.48366,-0.885793 -0.81601,-0.293067 -1.53005,-0.531989 -1.58675,-0.530939 -0.0567,0.001 -0.0851,0.151017 -0.0631,0.333259 0.0362,0.300634 0.18041,0.381806 1.55518,0.875692 0.83338,0.299389 1.52944,0.548029 1.5468,0.552534 0.0174,0.0045 0.0316,-0.150633 0.0316,-0.344753 z m -4.87497,-1.178842 c 1.3108,-0.466505 1.46571,-0.553245 1.46571,-0.820749 0,-0.164513 -0.0462,-0.299115 -0.10259,-0.299115 -0.0936,0 -1.64542,0.519251 -2.64377,0.884656 -0.30741,0.112516 -0.41037,0.226304 -0.41037,0.453522 0,0.166826 0.0507,0.30332 0.11266,0.30332 0.062,0 0.77223,-0.234735 1.57836,-0.521634 z m 4.87497,0.219698 c 0,-0.270135 -0.14297,-0.352113 -1.35739,-0.77832 -0.74657,-0.262011 -1.45683,-0.525886 -1.57836,-0.58639 -0.18498,-0.09209 -0.22098,-0.05027 -0.22098,0.256729 0,0.350566 0.0598,0.389124 1.3574,0.874537 1.64315,0.614707 1.79933,0.63497 1.79933,0.233444 z m -4.89633,-1.112648 c 1.41617,-0.505399 1.48707,-0.547487 1.48707,-0.882799 v -0.352097 l -0.85232,0.325967 c -0.46877,0.179282 -1.17904,0.445818 -1.57836,0.592303 -0.59631,0.218746 -0.72605,0.318245 -0.72605,0.556832 0,0.159772 0.0411,0.290495 0.0913,0.290495 0.0502,0 0.76047,-0.238816 1.57836,-0.530701 z m 4.87355,0.251152 c -0.0321,-0.222447 -0.25959,-0.364479 -1.11364,-0.69534 -0.59031,-0.228686 -1.28637,-0.500177 -1.5468,-0.603313 l -0.47351,-0.187521 v 0.352248 c 0,0.333834 0.0743,0.379394 1.42053,0.871584 1.68859,0.617336 1.76637,0.629246 1.71342,0.262342 z"
       style="fill:#00ccff;fill-opacity:1;stroke-width:0.12626907"
       sodipodi:nodetypes="ccsccscccscccccccccsccccccscccsccscccsccccccccccsssccscccccccccccsscccscccsscccccccccccscccccccccccccccscscsccccccccscsccccscccccscsccsccccccscccccscccsscscccsccscscscscccscsccsccccscccsccccccssccccccccccccccsccccccccccccsscsscsccscscscccsscccccscc" />
    <path
       style="fill:#ffffff;fill-opacity:1;stroke-width:0.03156727"
       d="m 35.264776,29.887346 c -1.238645,-0.453739 -1.360564,-0.500899 -1.612392,-0.623685 -0.261469,-0.127488 -0.376002,-0.254728 -0.402356,-0.446997 -0.01824,-0.133085 0.01434,-0.304721 0.05784,-0.304721 0.04208,0 2.390693,0.821853 2.610842,0.913617 0.301896,0.125838 0.388775,0.192807 0.436082,0.33615 0.05277,0.159908 0.0019,0.487756 -0.07535,0.485271 -0.01985,-6.38e-4 -0.476445,-0.162474 -1.014667,-0.359635 z"
       id="path6699"
       inkscape:connector-curvature="0" />
    <path
       style="fill:#ffffff;fill-opacity:1;stroke-width:0.06313454"
       d="m 35.099735,30.717985 c -1.638321,-0.595934 -1.741464,-0.650336 -1.825632,-0.962913 -0.03759,-0.139584 -0.05135,-0.270775 -0.03059,-0.291536 0.05828,-0.05828 0.522975,0.08239 1.635878,0.495208 1.267506,0.470169 1.408169,0.55194 1.46432,0.851247 0.0236,0.125784 0.01804,0.252816 -0.01236,0.282293 -0.0306,0.02967 -0.580317,-0.137392 -1.231616,-0.374299 z"
       id="path7246"
       inkscape:connector-curvature="0" />
    <path
       style="fill:#ffffff;fill-opacity:1;stroke-width:0.06313454"
       d="m 35.105807,29.831976 c -1.61526,-0.590581 -1.76838,-0.674473 -1.848843,-1.012952 -0.08351,-0.351296 -0.0061,-0.342725 1.414085,0.156634 0.743876,0.261553 1.423528,0.52802 1.510338,0.59215 0.161101,0.119013 0.256614,0.53871 0.14636,0.643129 -0.02841,0.02691 -0.578285,-0.143624 -1.22194,-0.378961 z"
       id="path7248"
       inkscape:connector-curvature="0" />
    <path
       style="fill:#ffffff;fill-opacity:1;stroke-width:0.06313454"
       d="m 35.360638,29.004654 c -1.889608,-0.697586 -2.024972,-0.757371 -2.087561,-0.921992 -0.03257,-0.08567 -0.04167,-0.225682 -0.02022,-0.311143 0.04601,-0.183317 -0.05429,-0.204129 1.3186,0.273604 1.183795,0.411932 1.537932,0.557463 1.688849,0.694022 0.130779,0.118336 0.156164,0.58702 0.03157,0.582819 -0.0434,-0.0015 -0.46246,-0.144252 -0.931234,-0.31731 z"
       id="path7250"
       inkscape:connector-curvature="0" />
    <path
       style="fill:#ffffff;fill-opacity:1;stroke-width:0.06313454"
       d="m 35.230586,28.03509 c -1.904701,-0.660546 -2.016522,-0.723667 -2.016522,-1.138275 0,-0.124718 0.03169,-0.223841 0.07157,-0.223841 0.166045,0 2.866031,1.043561 2.97064,1.14817 0.06299,0.06299 0.114521,0.182069 0.114521,0.264627 0,0.311131 -0.111157,0.30619 -1.140205,-0.05068 z"
       id="path7252"
       inkscape:connector-curvature="0" />
    <path
       style="fill:#ffffff;fill-opacity:1;stroke-width:0.06313454"
       d="M 35.834147,27.354715 C 34.849878,27.01223 33.760779,26.60144 33.544468,26.491086 33.270609,26.351374 33.186127,26.194802 33.224918,25.898863 l 0.02071,-0.158023 1.136422,0.40444 c 1.596814,0.56829 1.901987,0.718389 1.955445,0.961782 0.02346,0.106797 0.02466,0.223281 0.0027,0.258852 -0.04955,0.08017 -0.256607,0.07559 -0.506028,-0.0112 z"
       id="path7254"
       inkscape:connector-curvature="0" />
    <path
       style="fill:#ffffff;fill-opacity:1;stroke-width:0.06313454"
       d="m 34.974333,26.140325 c -1.449962,-0.513012 -1.671962,-0.62115 -1.727228,-0.841347 -0.0494,-0.196828 0.01442,-0.393771 0.127605,-0.393771 0.13822,0 2.365363,0.814998 2.648841,0.969313 0.19591,0.106647 0.265718,0.190614 0.311316,0.374461 0.03628,0.146284 0.03628,0.258982 0,0.294454 -0.03554,0.03475 -0.573351,-0.124596 -1.360534,-0.40311 z"
       id="path7256"
       inkscape:connector-curvature="0" />
    <path
       style="fill:#ffffff;fill-opacity:1;stroke-width:0.06313454"
       d="m 35.044965,25.260868 c -1.632188,-0.589156 -1.767767,-0.670965 -1.767767,-1.06668 0,-0.212311 0.01647,-0.242944 0.110486,-0.205477 0.06077,0.02422 0.633556,0.226527 1.272865,0.449578 0.639309,0.223052 1.278546,0.469629 1.420527,0.54795 0.23479,0.129518 0.258147,0.165063 0.258147,0.392844 0,0.173825 -0.02897,0.255054 -0.0947,0.265518 -0.05209,0.0083 -0.591887,-0.164388 -1.199557,-0.383733 z"
       id="path7258"
       inkscape:connector-curvature="0" />
    <path
       style="fill:#ffffff;fill-opacity:1;stroke-width:0.06313454"
       d="m 35.1081,24.374197 c -1.802756,-0.650729 -1.830902,-0.667045 -1.830902,-1.061393 0,-0.291447 -0.135978,-0.311055 1.294258,0.186633 1.183795,0.411932 1.537932,0.557462 1.688849,0.694021 0.13079,0.118347 0.156197,0.587198 0.03157,0.582516 -0.0434,-0.0016 -0.576102,-0.182431 -1.183772,-0.401777 z"
       id="path7260"
       inkscape:connector-curvature="0" />
    <path
       style="fill:#ffffff;fill-opacity:1;stroke-width:0.06313454"
       d="m 35.265936,23.525194 c -1.767124,-0.618402 -2.051872,-0.776435 -2.051872,-1.138772 0,-0.103701 0.02439,-0.203624 0.05421,-0.222051 0.05324,-0.0329 2.368798,0.795512 2.813721,1.006642 0.36005,0.170855 0.398674,0.598042 0.05402,0.597493 -0.09658,-1.54e-4 -0.488118,-0.109644 -0.870082,-0.243312 z"
       id="path7268"
       inkscape:connector-curvature="0" />
    <path
       style="fill:#ffffff;fill-opacity:1;stroke-width:0.06313454"
       d="M 35.834147,22.809029 C 34.849878,22.466543 33.760779,22.055753 33.544468,21.9454 33.270223,21.80549 33.186289,21.649456 33.224918,21.35135 l 0.02071,-0.15985 1.382473,0.54814 c 1.398179,0.554368 1.742687,0.754372 1.742687,1.011722 0,0.104799 -0.03737,0.132468 -0.17362,0.128556 -0.09549,-0.0027 -0.258852,-0.03464 -0.363024,-0.07089 z"
       id="path7270"
       inkscape:connector-curvature="0" />
    <path
       style="fill:#ffffff;fill-opacity:1;stroke-width:0.06313454"
       d="m 29.842167,22.790834 c -0.04861,-0.193665 0.04136,-0.381124 0.231845,-0.483066 0.07703,-0.04122 0.759698,-0.309628 1.517046,-0.596454 l 1.376996,-0.521501 -0.01905,0.29426 c -0.01767,0.273052 -0.03813,0.30476 -0.283864,0.439966 -0.145649,0.08014 -0.770681,0.325618 -1.38896,0.545507 -1.521217,0.541019 -1.386445,0.510824 -1.434015,0.321288 z"
       id="path7272"
       inkscape:connector-curvature="0" />
    <path
       style="fill:#ffffff;fill-opacity:1;stroke-width:0.06313454"
       d="m 29.84066,23.668715 c -0.06224,-0.24798 0.01298,-0.39515 0.268619,-0.525549 0.375443,-0.191513 2.716419,-0.966103 2.787326,-0.92228 0.106215,0.06564 0.07378,0.38389 -0.0506,0.496448 -0.151342,0.136963 -0.686289,0.35161 -1.92308,0.771636 -0.555411,0.188623 -1.01692,0.34295 -1.025574,0.34295 -0.0087,0 -0.03417,-0.07344 -0.0567,-0.163205 z"
       id="path7274"
       inkscape:connector-curvature="0" />
    <path
       style="fill:#ffffff;fill-opacity:1;stroke-width:0.06313454"
       d="m 29.846889,25.620732 c -0.08548,-0.08548 -0.03844,-0.403498 0.07671,-0.518651 0.178053,-0.178054 2.606334,-1.080757 2.907246,-1.080757 0.161117,0 0.177493,0.220743 0.03181,0.428739 -0.138556,0.197816 -0.400984,0.319359 -1.717689,0.795543 -1.205792,0.436073 -1.230102,0.443098 -1.298074,0.375126 z"
       id="path7276"
       inkscape:connector-curvature="0" />
    <path
       style="fill:#ffffff;fill-opacity:1;stroke-width:0.06313454"
       d="m 29.804799,24.585384 c 0,-0.274197 0.09551,-0.419676 0.365135,-0.556138 0.237816,-0.120366 2.626834,-0.95494 2.733571,-0.95494 0.101883,0 0.06217,0.423028 -0.05247,0.558935 -0.06916,0.08198 -0.636979,0.320769 -1.517957,0.638339 -0.774109,0.279047 -1.434654,0.507358 -1.467878,0.507358 -0.03322,0 -0.06041,-0.0871 -0.06041,-0.193554 z"
       id="path7278"
       inkscape:connector-curvature="0" />
    <path
       style="fill:#ffffff;fill-opacity:1;stroke-width:0.06313454"
       d="m 29.867934,26.328947 c 0,-0.367917 0.2247,-0.494176 1.982811,-1.114143 1.04439,-0.368286 1.110781,-0.375779 1.110781,-0.125357 0,0.27328 -0.05761,0.377871 -0.268075,0.486707 -0.239152,0.123671 -2.633119,0.970551 -2.743559,0.970551 -0.05135,0 -0.08196,-0.08133 -0.08196,-0.217758 z"
       id="path7280"
       inkscape:connector-curvature="0" />
    <path
       style="fill:#ffffff;fill-opacity:1;stroke-width:0.06313454"
       d="m 29.880126,27.226662 c 0.02935,-0.402075 -0.01573,-0.379189 2.592107,-1.316099 l 0.489293,-0.175786 v 0.220711 c 0,0.121391 -0.02787,0.272789 -0.06194,0.336439 -0.07509,0.140309 -0.643731,0.380219 -2.009311,0.847732 l -1.029527,0.352463 z"
       id="path7282"
       inkscape:connector-curvature="0" />
    <path
       style="fill:#ffffff;fill-opacity:1;stroke-width:0.06313454"
       d="m 29.835699,28.185165 c -0.07832,-0.356587 0.02725,-0.422011 1.631359,-1.010994 l 1.494468,-0.548725 v 0.266517 c 0,0.325773 -0.09232,0.419236 -0.629894,0.63767 -0.333203,0.135393 -2.380344,0.847974 -2.436103,0.847974 -0.0097,0 -0.03658,-0.0866 -0.05983,-0.192442 z"
       id="path7284"
       inkscape:connector-curvature="0" />
    <path
       style="fill:#ffffff;fill-opacity:1;stroke-width:0.06313454"
       d="m 29.804799,29.131071 c 0,-0.274198 0.09551,-0.419677 0.365135,-0.556139 0.363363,-0.183908 2.669555,-0.959776 2.734159,-0.919848 0.09679,0.05982 0.06382,0.385285 -0.05305,0.523843 -0.06916,0.08198 -0.636979,0.320769 -1.517957,0.63834 -0.774109,0.279047 -1.434654,0.507358 -1.467878,0.507358 -0.03322,0 -0.06041,-0.0871 -0.06041,-0.193554 z"
       id="path7286"
       inkscape:connector-curvature="0" />
    <path
       style="fill:#ffffff;fill-opacity:1;stroke-width:0.06313454"
       d="m 29.804799,30.024268 c 0,-0.41899 0.07751,-0.466443 1.71065,-1.047312 1.350141,-0.480212 1.407352,-0.492004 1.435162,-0.29581 0.02724,0.192149 -0.132512,0.427057 -0.376071,0.553006 -0.223898,0.115782 -2.608049,0.974356 -2.705663,0.974356 -0.03524,0 -0.06408,-0.08291 -0.06408,-0.18424 z"
       id="path7288"
       inkscape:connector-curvature="0" />
    <path
       style="fill:#ffffff;fill-opacity:1;stroke-width:0.06313454"
       d="m 29.844744,31.042812 c -0.01937,-0.03134 -0.0065,-0.160966 0.0286,-0.28807 0.04759,-0.172358 0.123215,-0.261386 0.297522,-0.350258 0.343036,-0.174897 2.519932,-0.95359 2.665837,-0.95359 0.143933,0 0.16437,0.159805 0.05198,0.406472 -0.08905,0.195452 -0.308286,0.302566 -1.600221,0.781849 -1.106183,0.410372 -1.390421,0.489832 -1.443717,0.403597 z"
       id="path7290"
       inkscape:connector-curvature="0" />
    <path
       style="fill:#ffffff;fill-opacity:1;stroke-width:0.06313454"
       d="m 29.845278,31.928924 c 0.02138,-0.269111 0.05712,-0.509777 0.07944,-0.534813 0.03644,-0.04088 1.502422,-0.584194 2.610651,-0.967536 l 0.426158,-0.14741 v 1.069526 1.069526 H 31.383969 29.80641 Z"
       id="path7294"
       inkscape:connector-curvature="0" />
    <path
       style="fill:#ffffff;fill-opacity:1;stroke-width:0.06313454"
       d="m 33.214064,31.285263 v -1.006685 l 0.899667,0.318504 c 0.494817,0.175177 1.187488,0.418572 1.53927,0.540877 l 0.639603,0.222373 0.03909,0.285216 c 0.0215,0.156869 0.03909,0.366482 0.03909,0.465808 v 0.180592 H 34.79242 33.214057 Z"
       id="path7296"
       inkscape:connector-curvature="0" />
    <path
       style="fill:#ffffff;fill-opacity:1;stroke-width:0.04464286"
       d="m 27.175826,36.207697 v -3.141253 l 0.212054,-0.02957 c 0.473775,-0.06606 1.847294,-0.120316 9.185267,-0.362828 3.358029,-0.11098 4.859387,-0.172031 5.611148,-0.228173 l 0.387933,-0.02897 0.01385,2.896828 c 0.0076,1.593254 0.01248,2.901552 0.01079,2.907326 -0.0029,0.01006 -2.798008,0.211463 -10.376405,0.747675 -1.927456,0.136377 -3.821166,0.277717 -4.208246,0.314089 -0.38708,0.03637 -0.73362,0.06613 -0.770089,0.06613 -0.05802,0 -0.06631,-0.392613 -0.06631,-3.141254 z"
       id="path7298"
       inkscape:connector-curvature="0" />
    <path
       style="fill:#ffffff;fill-opacity:1;stroke-width:0.04464286"
       d="m 25.502262,39.405614 c -0.144893,-0.357733 -0.135161,-6.033652 0.01059,-6.179408 0.02249,-0.02249 0.28546,-0.0769 0.584372,-0.120902 l 0.543477,-0.08001 -0.01146,3.149303 -0.01146,3.149303 -0.3125,0.05112 c -0.690938,0.113029 -0.768442,0.115981 -0.803028,0.03059 z"
       id="path7300"
       inkscape:connector-curvature="0" />
  </g>
</svg>
