<?xml version="1.0" encoding="UTF-8" standalone="no"?>
<!-- Created with Inkscape (http://www.inkscape.org/) -->

<svg
   xmlns:dc="http://purl.org/dc/elements/1.1/"
   xmlns:cc="http://creativecommons.org/ns#"
   xmlns:rdf="http://www.w3.org/1999/02/22-rdf-syntax-ns#"
   xmlns:svg="http://www.w3.org/2000/svg"
   xmlns="http://www.w3.org/2000/svg"
   xmlns:sodipodi="http://sodipodi.sourceforge.net/DTD/sodipodi-0.dtd"
   xmlns:inkscape="http://www.inkscape.org/namespaces/inkscape"
   width="60.13768"
   height="60.776516"
   viewBox="0 0 60.137677 60.776516"
   id="svg4160"
   version="1.1"
   inkscape:version="0.92.4 (5da689c313, 2019-01-14)"
   sodipodi:docname="wifi.svg">
  <defs
     id="defs4162">
    <clipPath
       id="clipPath721"
       clipPathUnits="userSpaceOnUse">
      <g
         style="fill:#00ccff;fill-opacity:1"
         inkscape:label="Clip"
         id="use723">
        <path
           inkscape:connector-curvature="0"
           id="path5482"
           d="m -129.40786,25.62657 c -0.13696,-0.135591 -2.72074,-1.618539 -5.74173,-3.295443 -3.02099,-1.676905 -5.59214,-3.137354 -5.71368,-3.245444 -0.20866,-0.18558 -0.22097,-1.292503 -0.22097,-19.87202015 V -20.461831 l 0.28411,-0.177783 c 0.15626,-0.09778 2.72741,-0.9883 5.71367,-1.978933 2.98627,-0.990633 5.57163,-1.911698 5.74525,-2.046809 0.27565,-0.214519 0.44371,-0.23565 1.32582,-0.166702 3.44592,0.269344 27.94537,2.090854 28.126435,2.091173 0.121534,2.14e-4 0.334613,0.114031 0.473509,0.252927 0.250623,0.250623 0.252538,0.420897 0.252538,22.45175985 0,18.35724515 -0.02929,22.23927615 -0.169231,22.43066015 -0.14913,0.203947 -1.877661,0.423991 -14.552511,1.852549 -7.9108,0.891612 -14.58373,1.622231 -14.82873,1.623598 -0.27526,0.0015 -0.54059,-0.0917 -0.69448,-0.244039 z m 15.1558,-2.594465 c 7.15314,-0.799106 13.19038,-1.483733 13.41609,-1.521396 l 0.41037,-0.06848 V -0.01206415 -21.466362 l -0.41037,-0.06514 c -0.22571,-0.03583 -6.23454,-0.492882 -13.35296,-1.015681 -7.11842,-0.522798 -13.18407,-0.982522 -13.47922,-1.021608 l -0.53664,-0.07107 V 0.49636685 24.632595 l 0.47351,-0.07379 c 0.26043,-0.04058 6.32608,-0.727602 13.47922,-1.526708 z M -129.59375,0.35823385 c 0,-22.31851285 -0.0111,-23.49101685 -0.22097,-23.42387585 -0.12154,0.03887 -2.40859,0.80041 -5.08233,1.692303 l -4.86136,1.621623 V -0.69966915 18.352379 l 4.92449,2.744478 c 2.70847,1.509464 4.99552,2.747056 5.08233,2.750206 0.12572,0.0046 0.15784,-4.77431 0.15784,-23.48882915 z"
           style="fill:#00ccff;fill-opacity:1;stroke-width:0.12626907" />
        <path
           inkscape:connector-curvature="0"
           id="path5484"
           d="m -135.27586,12.406429 c -1.59006,-0.576336 -2.67375,-1.039072 -2.80949,-1.199649 -0.20737,-0.245321 -0.22097,-1.073123 -0.22097,-13.4482811 V -15.428369 l 0.28821,-0.28821 c 0.23832,-0.238315 0.76952,-0.380922 3.06845,-0.823758 2.4071,-0.463672 2.82725,-0.514129 3.13052,-0.375949 0.74626,0.340018 0.71016,-0.43288 0.71016,15.2030319 V 12.634269 l -0.3691,0.369093 c -0.27015,0.270151 -0.4817,0.36537 -0.78918,0.3552 -0.23105,-0.0076 -1.58492,-0.436101 -3.0086,-0.952133 z m 2.90419,-3.0199568 c 0,-2.5325257 -0.0155,-2.7190478 -0.22097,-2.6626763 -0.12154,0.03334 -0.44826,0.095934 -0.72605,0.1390968 -0.27779,0.043164 -0.66133,0.1094601 -0.85232,0.1473269 l -0.34724,0.06885 v 2.010273 c 0,1.7027284 -0.029,2.0102714 -0.1894,2.0102714 -0.1611,0 -0.1894,-0.328182 -0.1894,-2.1960195 0,-2.5229966 -0.19499,-2.2099612 1.54679,-2.4832883 l 0.97859,-0.1535653 V -4.7613211 -15.789384 l -0.41038,0.08347 c -0.2257,0.04591 -1.2911,0.260135 -2.36754,0.476062 l -1.95717,0.392596 V -2.2187321 10.399793 l 2.27284,0.841437 c 1.25006,0.46279 2.31546,0.847534 2.36755,0.854988 0.0521,0.0075 0.0947,-1.211929 0.0947,-2.7097418 z"
           style="fill:#00ccff;fill-opacity:1;stroke-width:0.12626907" />
        <path
           inkscape:connector-curvature="0"
           id="path5486"
           d="m -124.11112,13.105231 c -0.14444,-0.07205 -0.35752,-0.291651 -0.47351,-0.488009 -0.19368,-0.327875 -0.2109,-1.527673 -0.2109,-14.6986491 V -16.423059 l 0.36857,-0.412366 c 0.45023,-0.503736 -0.76622,-0.535696 10.93251,0.287224 9.93203,0.698644 9.62452,0.655736 10.00497,1.396021 0.12072,0.234912 0.15639,3.193668 0.15783,13.0922989 0.002,13.9467461 0.0265,13.4717141 -0.70865,13.7665701 -0.19953,0.08003 -4.39707,0.42929 -9.32788,0.776138 -4.9308,0.34685 -9.30603,0.658257 -9.72272,0.692016 -0.41668,0.03376 -0.87579,0.0024 -1.02022,-0.06961 z m 1.36746,-1.20278 0.47351,-0.07827 V 8.6674598 5.5107329 l -0.47351,0.07827 c -0.26043,0.04305 -0.54453,0.07889 -0.63134,0.07966 -0.12202,0.0011 -0.15784,0.717656 -0.15784,3.158117 0,2.4419431 0.0357,3.1564121 0.15784,3.1553361 0.0868,-7.57e-4 0.37091,-0.03661 0.63134,-0.07966 z m 9.56489,-0.676568 c 3.99326,-0.276572 7.55878,-0.535856 7.92338,-0.576187 l 0.66291,-0.07333 V -2.0414551 c 0,-6.939801 -0.0426,-12.6182329 -0.0947,-12.6187359 -0.0521,-5.05e-4 -1.22141,-0.08631 -2.59851,-0.190678 -1.37709,-0.104369 -2.55613,-0.157425 -2.62008,-0.117902 -0.0639,0.03952 -0.11628,0.434016 -0.11628,0.876649 0,0.981605 -0.0407,1.003359 -1.64395,0.877941 l -1.13396,-0.08871 v 0.525419 c 0,0.69142 -0.284,1.34466 -0.79518,1.829028 -0.22806,0.216101 -0.5904,0.648607 -0.80519,0.9611229 -0.2148,0.312516 -0.5108,0.676454 -0.65778,0.808751 -0.3669,0.330252 -0.34171,0.391651 0.23107,0.563261 0.89523,0.268219 1.32737,1.201173 0.73282,1.582122 -0.15626,0.10012 -0.53133,0.247217 -0.8335,0.326882 -0.30216,0.07967 -0.52945,0.164259 -0.50507,0.187986 0.0244,0.02373 0.71131,0.309751 1.52653,0.635609 l 1.48223,0.592468 0.033,5.00604895 0.033,5.00604905 0.88388,-0.02895 c 0.48614,-0.01592 1.92087,-0.06553 3.18829,-0.110241 l 2.30441,-0.08129 v 2.9834465 c 0,2.5677726 -0.0264,2.9834446 -0.1894,2.9834446 -0.16263,0 -0.1894,-0.393228 -0.1894,-2.7814356 V 4.9053939 l -0.78918,0.06534 c -0.43405,0.03593 -3.65865,0.15396 -7.16577,0.262278 -3.50713,0.10832 -6.61808,0.226036 -6.91324,0.261592 l -0.53664,0.06465 v 3.1580755 3.1580756 l 0.66291,-0.07333 c 0.36461,-0.04033 3.93013,-0.299615 7.92339,-0.576188 z m -7.54458,-6.1765301 1.35739,-0.01065 V -0.11621115 -5.2711231 l 1.53471,-0.60981 c 0.84409,-0.335396 1.63659,-0.71169 1.76111,-0.836208 0.12452,-0.124518 0.47088,-0.288155 0.7697,-0.363638 0.99304,-0.250847 1.13905,-0.346305 0.9811,-0.64144 -0.0769,-0.143759 -0.38496,-0.366431 -0.68449,-0.494826 -0.53904,-0.231058 -0.95286,-0.65885 -0.95286,-0.985022 0,-0.189348 -0.55476,-0.9353999 -1.34744,-1.8120659 -0.58606,-0.648162 -0.8637,-1.430522 -0.74056,-2.086881 l 0.0791,-0.421836 h -0.96104 c -1.38956,0 -1.44952,-0.05194 -1.44952,-1.255799 v -0.994374 l -1.10485,-0.07784 c -0.60767,-0.04281 -1.31794,-0.105404 -1.57837,-0.139097 l -0.4735,-0.06126 v 10.6463149 10.646315 l 0.72604,-0.0907 c 0.39933,-0.04988 1.33688,-0.0955 2.08344,-0.101356 z m 4.76666,-1.21021 c 0,-0.590308 -0.0142,-1.072194 -0.0316,-1.070857 -0.0174,0.0013 -0.71342,0.250845 -1.5468,0.554464 l -1.51523,0.552033 -0.0388,0.518823 -0.0388,0.518824 h 1.58562 1.58563 z m 3.38532,0.487082 -0.0392,-0.459935 -1.5468,-0.546977 -1.5468,-0.546976 v 1.006912 1.006912 h 1.58599 1.58599 z m -4.71527,-1.30498 c 1.15098,-0.425012 1.27057,-0.49954 1.30788,-0.815053 0.0473,-0.400218 0.20164,-0.424677 -1.7457,0.276703 -1.22515,0.441267 -1.32894,0.504575 -1.36689,0.83371 -0.0477,0.413518 -0.1686,0.433308 1.80471,-0.29536 z m 4.71603,0.292751 c -0.0358,-0.300984 -0.17111,-0.384174 -1.30677,-0.80353 -1.97371,-0.728819 -1.85238,-0.709025 -1.80471,-0.294426 0.0382,0.33215 0.14258,0.39414 1.49316,0.886723 0.79866,0.291284 1.49849,0.533514 1.55519,0.538291 0.0567,0.0048 0.0851,-0.1424 0.0631,-0.327058 z m -3.40926,-1.982193 c 0.022,-0.183544 0.002,-0.33371405 -0.0439,-0.33371405 -0.0461,0 -0.76014,0.24093105 -1.58675,0.53540405 -1.42273,0.506831 -1.50294,0.553829 -1.50294,0.880643 v 0.345238 l 1.5468,-0.546929 c 1.41248,-0.499437 1.55027,-0.575907 1.58675,-0.880642 z m 3.43244,1.081856 c 0,-0.33552 -0.0673,-0.375385 -1.42053,-0.841973 -0.78129,-0.269377 -1.49608,-0.516454 -1.58842,-0.549058 -0.11932,-0.0421301 -0.15586,0.04266 -0.12627,0.293071 0.0384,0.325474 0.1524,0.393177 1.49372,0.887533 0.79866,0.29435 1.49471,0.541355 1.5468,0.548902 0.0521,0.0076 0.0947,-0.144766 0.0947,-0.338475 z m -3.7565,-1.56071705 c 0.2428,-0.09652 0.34724,-0.228366 0.34724,-0.438383 0,-0.165194 -0.0426,-0.300542 -0.0947,-0.300772 -0.0521,-2.52e-4 -0.76235,0.234792 -1.57837,0.522272 -1.41983,0.50020105 -1.48366,0.53801205 -1.48366,0.87884905 v 0.356159 l 1.23113,-0.440047 c 0.67711,-0.242027 1.38738,-0.50216105 1.57836,-0.57807805 z m 3.7565,0.67608505 c 0,-0.336157 -0.0706,-0.378292 -1.48366,-0.88579205 -0.81601,-0.293067 -1.52628,-0.53199 -1.57836,-0.530939 -0.0521,0.001 -0.0947,0.139262 -0.0947,0.307138 0,0.243809 0.10798,0.345131 0.53664,0.503522 2.15533,0.79640405 2.56058,0.94541805 2.58852,0.95180105 0.0174,0.004 0.0316,-0.15161 0.0316,-0.34573 z m -4.87497,-1.17884105 c 1.40122,-0.498684 1.46571,-0.537331 1.46571,-0.878432 v -0.356797 l -1.23113,0.449874 c -0.67711,0.247429 -1.38738,0.506229 -1.57836,0.57511 -0.24768,0.08933 -0.34724,0.212203 -0.34724,0.428559 0,0.166825 0.0507,0.303319 0.11266,0.303319 0.062,0 0.77223,-0.234735 1.57836,-0.521633 z m 4.87497,0.22288 c 0,-0.251882 -0.12382,-0.343484 -0.78918,-0.583851 -0.43405,-0.156803 -1.14431,-0.417565 -1.57836,-0.579471 l -0.78919,-0.294374 v 0.360201 c 0,0.34445 0.0621,0.382557 1.42053,0.871412 0.78129,0.281166 1.49156,0.514277 1.57837,0.518023 0.0868,0.0038 0.15783,-0.127625 0.15783,-0.29194 z m -4.91219,-1.120535 c 1.42272,-0.50682995 1.50293,-0.55382895 1.50293,-0.88064195 v -0.345239 l -1.5468,0.54693 c -1.41248,0.49943695 -1.55027,0.57590695 -1.58675,0.88064195 -0.022,0.183543 -0.002,0.333714 0.0439,0.333714 0.0461,0 0.76014,-0.240932 1.58675,-0.535405 z m 4.88901,0.201691 c -0.0365,-0.304735 -0.17427,-0.381205 -1.58675,-0.88064195 l -1.5468,-0.54693 v 0.35003 c 0,0.331008 0.0772,0.37825 1.42053,0.86936495 1.72661,0.631238 1.76422,0.635809 1.71302,0.208177 z m -4.80729,-1.13072095 c 1.35587,-0.470532 1.41988,-0.508767 1.42053,-0.848485 5.4e-4,-0.283109 -0.0444,-0.340556 -0.22029,-0.281344 -2.53888,0.854879 -2.87223,1.012811 -2.91426,1.380706 -0.0298,0.26123195 0.006,0.34706595 0.12627,0.30313795 0.0923,-0.0337 0.80683,-0.28300995 1.58775,-0.55401495 z m 4.80729,0.242342 c -0.0361,-0.305976 -0.16631,-0.384084 -1.36578,-0.81956 -0.7292,-0.264744 -1.42526,-0.514126 -1.54679,-0.554184 -0.17546,-0.05783 -0.22098,6.31e-4 -0.22098,0.28354 0,0.340795 0.0649,0.37946 1.48367,0.88457 0.81601,0.290509 1.53005,0.53171795 1.58675,0.53602095 0.0567,0.0043 0.0851,-0.14437195 0.0631,-0.33038695 z m -4.96445,-1.097664 c 1.39602,-0.504695 1.51846,-0.574942 1.55626,-0.892865 0.0482,-0.405531 0.1617,-0.421762 -1.71428,0.245166 -1.34305,0.477468 -1.42034,0.523848 -1.42034,0.852317 0,0.191055 0.0142,0.346428 0.0316,0.345273 0.0174,-0.0011 0.71342,-0.248606 1.5468,-0.549891 z m 4.98695,0.20475 c -6.4e-4,-0.328875 -0.0758,-0.373299 -1.42052,-0.839976 -0.78092,-0.271005 -1.49541,-0.520312 -1.58775,-0.554014 -0.12004,-0.04381 -0.15603,0.04097 -0.12627,0.29739 0.0388,0.334123 0.141,0.394826 1.49372,0.887036 0.79866,0.290604 1.49471,0.534768 1.5468,0.542586 0.0521,0.0078 0.0944,-0.14204 0.094,-0.333022 z m -3.62955,-1.611802 c 0.21259,-0.08494 0.32323,-0.692156 0.12626,-0.693026 -0.0521,-2.53e-4 -0.76234,0.234792 -1.57836,0.522271 -1.42207,0.500992 -1.48366,0.537544 -1.48366,0.880543 v 0.357851 l 1.35739,-0.489679 c 0.74657,-0.269323 1.45683,-0.529406 1.57837,-0.57796 z m 3.63023,0.722214 c 0,-0.336158 -0.0706,-0.378292 -1.48366,-0.885793 -0.81601,-0.293067 -1.53005,-0.531989 -1.58675,-0.530939 -0.0567,10e-4 -0.0851,0.151017 -0.0631,0.333259 0.0362,0.300634 0.18041,0.381806 1.55518,0.875692 0.83338,0.299389 1.52944,0.548029 1.5468,0.552534 0.0174,0.0045 0.0316,-0.150633 0.0316,-0.344753 z m -4.87497,-1.178842 c 1.3108,-0.466505 1.46571,-0.553245 1.46571,-0.820749 0,-0.164513 -0.0462,-0.299115 -0.10259,-0.299115 -0.0936,0 -1.64542,0.519251 -2.64377,0.884656 -0.30741,0.112516 -0.41037,0.226304 -0.41037,0.453522 0,0.166826 0.0507,0.30332 0.11266,0.30332 0.062,0 0.77223,-0.234735 1.57836,-0.521634 z m 4.87497,0.219698 c 0,-0.270135 -0.14297,-0.352113 -1.35739,-0.77832 -0.74657,-0.262011 -1.45683,-0.525886 -1.57836,-0.58639 -0.18498,-0.09209 -0.22098,-0.05027 -0.22098,0.256729 0,0.350566 0.0598,0.389124 1.3574,0.874537 1.64315,0.614707 1.79933,0.63497 1.79933,0.233444 z m -4.89633,-1.112648 c 1.41617,-0.505399 1.48707,-0.547487 1.48707,-0.882799 v -0.352097 l -0.85232,0.325967 c -0.46877,0.179282 -1.17904,0.445818 -1.57836,0.592303 -0.59631,0.218746 -0.72605,0.318245 -0.72605,0.556832 0,0.159772 0.0411,0.290495 0.0913,0.290495 0.0502,0 0.76047,-0.238816 1.57836,-0.530701 z m 4.87355,0.251152 c -0.0321,-0.222447 -0.25959,-0.364479 -1.11364,-0.69534 -0.59031,-0.228686 -1.28637,-0.500177 -1.5468,-0.603313 l -0.47351,-0.187521 v 0.352248 c 0,0.333834 0.0743,0.379394 1.42053,0.871584 1.68859,0.617336 1.76637,0.629246 1.71342,0.262342 z"
           style="fill:#00ccff;fill-opacity:1;stroke-width:0.12626907" />
      </g>
    </clipPath>
    <clipPath
       clipPathUnits="userSpaceOnUse"
       id="clipPath5498">
      <g
         style="fill:#00ccff;fill-opacity:1"
         id="use5500"
         inkscape:label="Clip">
        <path
           style="fill:#00ccff;fill-opacity:1;stroke-width:0.17857143"
           d="m -101.73745,48.465923 c -0.26111,-0.141822 -0.64281,-0.529786 -0.84821,-0.862143 l -0.37347,-0.604286 6.6e-4,-22.568207 c 6.6e-4,-22.2045483 0.006,-22.5775873 0.35551,-23.1501983 0.71126,-1.16654899 1.15628,-1.29159699 4.599184,-1.29234299 l 3.080357,-6.68e-4 V -5.5476368 -11.083351 h 12.098975 12.098975 l 7.811739,7.8132527 7.81174,7.813253 v 1.204604 1.204605 l 1.919643,3.57e-4 c 2.204164,3.57e-4 2.907592,0.243114 3.567869,1.231488 0.387423,0.579939 0.405345,0.763496 0.405345,4.1517853 v 3.544941 h 1.88074 c 2.12532,0 2.80663,0.2019 3.51264,1.04095 1.02685,1.220343 1.20994,0.559941 -4.48385,16.173061 -2.852348,7.821511 -5.273634,14.384511 -5.380634,14.584443 -0.107001,0.199934 -0.450578,0.519628 -0.763507,0.710434 -0.555787,0.338887 -1.104386,0.346769 -23.693961,0.340437 -19.810032,-0.0056 -23.193055,-0.04344 -23.599745,-0.264337 z m 46.476828,-1.836272 c 0.110844,-0.177491 2.47151,-6.545795 5.245921,-14.151786 3.550628,-9.733984 5.005608,-13.93483 4.913448,-14.186215 -0.13,-0.354595 -0.29363,-0.357143 -22.937496,-0.357143 h -22.806562 l -4.986248,13.660714 c -2.742437,7.513392 -5.073521,13.924986 -5.180181,14.247982 -0.39392,1.19285 -2.12138,1.109161 22.894387,1.109161 21.656091,0 22.664081,-0.01423 22.856731,-0.322713 z m -42.612526,-14.830729 2.949729,-8.054093 V 12.75931 1.7737917 h -2.844387 c -2.347714,0 -2.893384,0.049 -3.125004,0.280613 -0.25166,0.251663 -0.28005,2.245828 -0.27518,19.3303573 0.004,12.134364 0.0671,18.944198 0.17527,18.758998 0.0934,-0.159909 1.49722,-3.915088 3.119572,-8.344838 z m 5.323647,-14.323117 c 0.216667,-0.423714 0.620785,-0.935809 0.89804,-1.137988 0.499398,-0.364166 0.663085,-0.368046 17.544642,-0.415746 l 17.040543,-0.04815 V 10.788142 5.7023637 h -7.5 -7.5 v -7.5 -7.5000005 H -82.60199 -93.137705 V 4.5714117 c 0,7.6279753 0.04371,13.8253383 0.09713,13.7719143 0.05342,-0.05342 0.274405,-0.443807 0.491071,-0.867521 z m 41.554654,-4.885686 c 0,-2.7535553 -0.04581,-3.3366303 -0.280613,-3.5714283 -0.217418,-0.217418 -0.679886,-0.280613 -2.053571,-0.280613 h -1.772959 v 3.5714293 3.571428 h 2.053571 2.053572 z m -7.5,-8.8063683 c 0,-0.175092 -11.297108,-11.4742445 -11.472168,-11.4742445 -0.07424,0 -0.134975,2.611607 -0.134975,5.8035715 v 5.803572 h 5.803571 c 3.191964,0 5.803572,-0.0598 5.803572,-0.132899 z"
           id="path5583"
           inkscape:connector-curvature="0" />
        <path
           style="fill:#00ccff;fill-opacity:1;stroke-width:0.17857143"
           d="m -87.742357,-1.4737173 c -0.302696,-0.302696 -0.270292,-0.959178 0.06384,-1.293307 0.242536,-0.242535 1.002045,-0.280612 5.597324,-0.280612 5.11636,0 5.329075,0.01366 5.644815,0.36255 0.259943,0.287234 0.292634,0.463443 0.157366,0.848214 l -0.170737,0.485664 -5.537914,0.04713 c -4.157859,0.03539 -5.591935,-0.0069 -5.75469,-0.169643 z"
           id="path5585"
           inkscape:connector-curvature="0" />
        <path
           style="fill:#00ccff;fill-opacity:1;stroke-width:0.17857143"
           d="m -87.744847,5.4880777 c -0.31557,-0.315569 -0.260772,-0.938292 0.112275,-1.275895 0.288342,-0.260946 0.943417,-0.295533 5.597323,-0.295533 4.879446,0 5.292704,0.02424 5.566297,0.32656 0.347177,0.383627 0.383651,0.942465 0.08125,1.244868 -0.306306,0.306307 -11.050836,0.306307 -11.357142,0 z"
           id="path5587"
           inkscape:connector-curvature="0" />
        <path
           style="fill:#00ccff;fill-opacity:1;stroke-width:0.17857143"
           d="m -87.562257,12.567238 c -0.511086,-0.357978 -0.511086,-1.050341 0,-1.40832 0.601981,-0.421644 24.318552,-0.421644 24.920533,0 0.481355,0.337154 0.514309,0.988961 0.07032,1.390769 -0.297123,0.268894 -1.42032,0.295534 -12.460267,0.295534 -10.692939,0 -12.180831,-0.03301 -12.530582,-0.277983 z"
           id="path5589"
           inkscape:connector-curvature="0" />
      </g>
    </clipPath>
    <clipPath
       clipPathUnits="userSpaceOnUse"
       id="clipPath5579">
      <g
         id="use5581"
         inkscape:label="Clip">
        <path
           style="fill:#00ccff;fill-opacity:1;stroke-width:0.17857143"
           d="M 53.64801,-9.8333516 V -36.261923 h 10.680554 10.680555 l 2.489088,3.477093 2.489089,3.477092 16.741071,0.0051 16.741073,0.005 V -6.3512086 16.595216 H 83.558725 53.64801 Z m 57.99195,6.919643 -0.0455,-17.5446434 -13.784387,-0.04574 -13.784387,-0.04574 -4.965613,-6.958096 -4.965614,-6.958095 -9.330358,-0.0051 -9.330357,-0.0051 V -9.9226366 14.630936 H 83.5596 111.68547 Z m 0.0438,-22.0089284 v -2.589286 H 96.575333 c -13.417544,0 -15.096782,0.03025 -15.004658,0.270322 0.05705,0.148677 0.847219,1.313856 1.755926,2.589286 l 1.652193,2.318963 h 13.352466 13.35246 z"
           id="path5683"
           inkscape:connector-curvature="0" />
        <path
           style="fill:#ffffff;fill-opacity:1;stroke-width:0.17857143"
           d="m 82.576582,-3.2689376 v -8.7927294 l -3.082219,3.0784434 c -1.69522,1.693144 -3.166064,3.078444 -3.268541,3.078444 -0.102478,0 -0.441578,-0.263356 -0.753555,-0.585234 l -0.567232,-0.585235 4.328213,-4.3255084 4.328212,-4.325507 4.282161,4.284951 4.282161,4.2849514 -0.667989,0.667989 -0.667989,0.667989 -3.081687,-3.077912 C 86.01319,-10.591148 84.567,-11.976209 84.494363,-11.976209 c -0.07264,0 -0.132067,3.9375004 -0.132067,8.7500004 v 8.75 h -0.892857 -0.892857 z"
           id="path5685"
           inkscape:connector-curvature="0" />
      </g>
    </clipPath>
    <clipPath
       id="clipPath721-2"
       clipPathUnits="userSpaceOnUse">
      <g
         style="fill:#00ccff;fill-opacity:1"
         inkscape:label="Clip"
         id="use723-3">
        <path
           inkscape:connector-curvature="0"
           id="path5712"
           d="m -129.40786,25.62657 c -0.13696,-0.135591 -2.72074,-1.618539 -5.74173,-3.295443 -3.02099,-1.676905 -5.59214,-3.137354 -5.71368,-3.245444 -0.20866,-0.18558 -0.22097,-1.292503 -0.22097,-19.87202015 V -20.461831 l 0.28411,-0.177783 c 0.15626,-0.09778 2.72741,-0.9883 5.71367,-1.978933 2.98627,-0.990633 5.57163,-1.911698 5.74525,-2.046809 0.27565,-0.214519 0.44371,-0.23565 1.32582,-0.166702 3.44592,0.269344 27.94537,2.090854 28.126435,2.091173 0.121534,2.14e-4 0.334613,0.114031 0.473509,0.252927 0.250623,0.250623 0.252538,0.420897 0.252538,22.45175985 0,18.35724515 -0.02929,22.23927615 -0.169231,22.43066015 -0.14913,0.203947 -1.877661,0.423991 -14.552511,1.852549 -7.9108,0.891612 -14.58373,1.622231 -14.82873,1.623598 -0.27526,0.0015 -0.54059,-0.0917 -0.69448,-0.244039 z m 15.1558,-2.594465 c 7.15314,-0.799106 13.19038,-1.483733 13.41609,-1.521396 l 0.41037,-0.06848 V -0.01206415 -21.466362 l -0.41037,-0.06514 c -0.22571,-0.03583 -6.23454,-0.492882 -13.35296,-1.015681 -7.11842,-0.522798 -13.18407,-0.982522 -13.47922,-1.021608 l -0.53664,-0.07107 V 0.49636685 24.632595 l 0.47351,-0.07379 c 0.26043,-0.04058 6.32608,-0.727602 13.47922,-1.526708 z M -129.59375,0.35823385 c 0,-22.31851285 -0.0111,-23.49101685 -0.22097,-23.42387585 -0.12154,0.03887 -2.40859,0.80041 -5.08233,1.692303 l -4.86136,1.621623 V -0.69966915 18.352379 l 4.92449,2.744478 c 2.70847,1.509464 4.99552,2.747056 5.08233,2.750206 0.12572,0.0046 0.15784,-4.77431 0.15784,-23.48882915 z"
           style="fill:#00ccff;fill-opacity:1;stroke-width:0.12626907" />
        <path
           inkscape:connector-curvature="0"
           id="path5714"
           d="m -135.27586,12.406429 c -1.59006,-0.576336 -2.67375,-1.039072 -2.80949,-1.199649 -0.20737,-0.245321 -0.22097,-1.073123 -0.22097,-13.4482811 V -15.428369 l 0.28821,-0.28821 c 0.23832,-0.238315 0.76952,-0.380922 3.06845,-0.823758 2.4071,-0.463672 2.82725,-0.514129 3.13052,-0.375949 0.74626,0.340018 0.71016,-0.43288 0.71016,15.2030319 V 12.634269 l -0.3691,0.369093 c -0.27015,0.270151 -0.4817,0.36537 -0.78918,0.3552 -0.23105,-0.0076 -1.58492,-0.436101 -3.0086,-0.952133 z m 2.90419,-3.0199568 c 0,-2.5325257 -0.0155,-2.7190478 -0.22097,-2.6626763 -0.12154,0.03334 -0.44826,0.095934 -0.72605,0.1390968 -0.27779,0.043164 -0.66133,0.1094601 -0.85232,0.1473269 l -0.34724,0.06885 v 2.010273 c 0,1.7027284 -0.029,2.0102714 -0.1894,2.0102714 -0.1611,0 -0.1894,-0.328182 -0.1894,-2.1960195 0,-2.5229966 -0.19499,-2.2099612 1.54679,-2.4832883 l 0.97859,-0.1535653 V -4.7613211 -15.789384 l -0.41038,0.08347 c -0.2257,0.04591 -1.2911,0.260135 -2.36754,0.476062 l -1.95717,0.392596 V -2.2187321 10.399793 l 2.27284,0.841437 c 1.25006,0.46279 2.31546,0.847534 2.36755,0.854988 0.0521,0.0075 0.0947,-1.211929 0.0947,-2.7097418 z"
           style="fill:#00ccff;fill-opacity:1;stroke-width:0.12626907" />
        <path
           inkscape:connector-curvature="0"
           id="path5716"
           d="m -124.11112,13.105231 c -0.14444,-0.07205 -0.35752,-0.291651 -0.47351,-0.488009 -0.19368,-0.327875 -0.2109,-1.527673 -0.2109,-14.6986491 V -16.423059 l 0.36857,-0.412366 c 0.45023,-0.503736 -0.76622,-0.535696 10.93251,0.287224 9.93203,0.698644 9.62452,0.655736 10.00497,1.396021 0.12072,0.234912 0.15639,3.193668 0.15783,13.0922989 0.002,13.9467461 0.0265,13.4717141 -0.70865,13.7665701 -0.19953,0.08003 -4.39707,0.42929 -9.32788,0.776138 -4.9308,0.34685 -9.30603,0.658257 -9.72272,0.692016 -0.41668,0.03376 -0.87579,0.0024 -1.02022,-0.06961 z m 1.36746,-1.20278 0.47351,-0.07827 V 8.6674598 5.5107329 l -0.47351,0.07827 c -0.26043,0.04305 -0.54453,0.07889 -0.63134,0.07966 -0.12202,0.0011 -0.15784,0.717656 -0.15784,3.158117 0,2.4419431 0.0357,3.1564121 0.15784,3.1553361 0.0868,-7.57e-4 0.37091,-0.03661 0.63134,-0.07966 z m 9.56489,-0.676568 c 3.99326,-0.276572 7.55878,-0.535856 7.92338,-0.576187 l 0.66291,-0.07333 V -2.0414551 c 0,-6.939801 -0.0426,-12.6182329 -0.0947,-12.6187359 -0.0521,-5.05e-4 -1.22141,-0.08631 -2.59851,-0.190678 -1.37709,-0.104369 -2.55613,-0.157425 -2.62008,-0.117902 -0.0639,0.03952 -0.11628,0.434016 -0.11628,0.876649 0,0.981605 -0.0407,1.003359 -1.64395,0.877941 l -1.13396,-0.08871 v 0.525419 c 0,0.69142 -0.284,1.34466 -0.79518,1.829028 -0.22806,0.216101 -0.5904,0.648607 -0.80519,0.9611229 -0.2148,0.312516 -0.5108,0.676454 -0.65778,0.808751 -0.3669,0.330252 -0.34171,0.391651 0.23107,0.563261 0.89523,0.268219 1.32737,1.201173 0.73282,1.582122 -0.15626,0.10012 -0.53133,0.247217 -0.8335,0.326882 -0.30216,0.07967 -0.52945,0.164259 -0.50507,0.187986 0.0244,0.02373 0.71131,0.309751 1.52653,0.635609 l 1.48223,0.592468 0.033,5.00604895 0.033,5.00604905 0.88388,-0.02895 c 0.48614,-0.01592 1.92087,-0.06553 3.18829,-0.110241 l 2.30441,-0.08129 v 2.9834465 c 0,2.5677726 -0.0264,2.9834446 -0.1894,2.9834446 -0.16263,0 -0.1894,-0.393228 -0.1894,-2.7814356 V 4.9053939 l -0.78918,0.06534 c -0.43405,0.03593 -3.65865,0.15396 -7.16577,0.262278 -3.50713,0.10832 -6.61808,0.226036 -6.91324,0.261592 l -0.53664,0.06465 v 3.1580755 3.1580756 l 0.66291,-0.07333 c 0.36461,-0.04033 3.93013,-0.299615 7.92339,-0.576188 z m -7.54458,-6.1765301 1.35739,-0.01065 V -0.11621115 -5.2711231 l 1.53471,-0.60981 c 0.84409,-0.335396 1.63659,-0.71169 1.76111,-0.836208 0.12452,-0.124518 0.47088,-0.288155 0.7697,-0.363638 0.99304,-0.250847 1.13905,-0.346305 0.9811,-0.64144 -0.0769,-0.143759 -0.38496,-0.366431 -0.68449,-0.494826 -0.53904,-0.231058 -0.95286,-0.65885 -0.95286,-0.985022 0,-0.189348 -0.55476,-0.9353999 -1.34744,-1.8120659 -0.58606,-0.648162 -0.8637,-1.430522 -0.74056,-2.086881 l 0.0791,-0.421836 h -0.96104 c -1.38956,0 -1.44952,-0.05194 -1.44952,-1.255799 v -0.994374 l -1.10485,-0.07784 c -0.60767,-0.04281 -1.31794,-0.105404 -1.57837,-0.139097 l -0.4735,-0.06126 v 10.6463149 10.646315 l 0.72604,-0.0907 c 0.39933,-0.04988 1.33688,-0.0955 2.08344,-0.101356 z m 4.76666,-1.21021 c 0,-0.590308 -0.0142,-1.072194 -0.0316,-1.070857 -0.0174,0.0013 -0.71342,0.250845 -1.5468,0.554464 l -1.51523,0.552033 -0.0388,0.518823 -0.0388,0.518824 h 1.58562 1.58563 z m 3.38532,0.487082 -0.0392,-0.459935 -1.5468,-0.546977 -1.5468,-0.546976 v 1.006912 1.006912 h 1.58599 1.58599 z m -4.71527,-1.30498 c 1.15098,-0.425012 1.27057,-0.49954 1.30788,-0.815053 0.0473,-0.400218 0.20164,-0.424677 -1.7457,0.276703 -1.22515,0.441267 -1.32894,0.504575 -1.36689,0.83371 -0.0477,0.413518 -0.1686,0.433308 1.80471,-0.29536 z m 4.71603,0.292751 c -0.0358,-0.300984 -0.17111,-0.384174 -1.30677,-0.80353 -1.97371,-0.728819 -1.85238,-0.709025 -1.80471,-0.294426 0.0382,0.33215 0.14258,0.39414 1.49316,0.886723 0.79866,0.291284 1.49849,0.533514 1.55519,0.538291 0.0567,0.0048 0.0851,-0.1424 0.0631,-0.327058 z m -3.40926,-1.982193 c 0.022,-0.183544 0.002,-0.33371405 -0.0439,-0.33371405 -0.0461,0 -0.76014,0.24093105 -1.58675,0.53540405 -1.42273,0.506831 -1.50294,0.553829 -1.50294,0.880643 v 0.345238 l 1.5468,-0.546929 c 1.41248,-0.499437 1.55027,-0.575907 1.58675,-0.880642 z m 3.43244,1.081856 c 0,-0.33552 -0.0673,-0.375385 -1.42053,-0.841973 -0.78129,-0.269377 -1.49608,-0.516454 -1.58842,-0.549058 -0.11932,-0.0421301 -0.15586,0.04266 -0.12627,0.293071 0.0384,0.325474 0.1524,0.393177 1.49372,0.887533 0.79866,0.29435 1.49471,0.541355 1.5468,0.548902 0.0521,0.0076 0.0947,-0.144766 0.0947,-0.338475 z m -3.7565,-1.56071705 c 0.2428,-0.09652 0.34724,-0.228366 0.34724,-0.438383 0,-0.165194 -0.0426,-0.300542 -0.0947,-0.300772 -0.0521,-2.52e-4 -0.76235,0.234792 -1.57837,0.522272 -1.41983,0.50020105 -1.48366,0.53801205 -1.48366,0.87884905 v 0.356159 l 1.23113,-0.440047 c 0.67711,-0.242027 1.38738,-0.50216105 1.57836,-0.57807805 z m 3.7565,0.67608505 c 0,-0.336157 -0.0706,-0.378292 -1.48366,-0.88579205 -0.81601,-0.293067 -1.52628,-0.53199 -1.57836,-0.530939 -0.0521,0.001 -0.0947,0.139262 -0.0947,0.307138 0,0.243809 0.10798,0.345131 0.53664,0.503522 2.15533,0.79640405 2.56058,0.94541805 2.58852,0.95180105 0.0174,0.004 0.0316,-0.15161 0.0316,-0.34573 z m -4.87497,-1.17884105 c 1.40122,-0.498684 1.46571,-0.537331 1.46571,-0.878432 v -0.356797 l -1.23113,0.449874 c -0.67711,0.247429 -1.38738,0.506229 -1.57836,0.57511 -0.24768,0.08933 -0.34724,0.212203 -0.34724,0.428559 0,0.166825 0.0507,0.303319 0.11266,0.303319 0.062,0 0.77223,-0.234735 1.57836,-0.521633 z m 4.87497,0.22288 c 0,-0.251882 -0.12382,-0.343484 -0.78918,-0.583851 -0.43405,-0.156803 -1.14431,-0.417565 -1.57836,-0.579471 l -0.78919,-0.294374 v 0.360201 c 0,0.34445 0.0621,0.382557 1.42053,0.871412 0.78129,0.281166 1.49156,0.514277 1.57837,0.518023 0.0868,0.0038 0.15783,-0.127625 0.15783,-0.29194 z m -4.91219,-1.120535 c 1.42272,-0.50682995 1.50293,-0.55382895 1.50293,-0.88064195 v -0.345239 l -1.5468,0.54693 c -1.41248,0.49943695 -1.55027,0.57590695 -1.58675,0.88064195 -0.022,0.183543 -0.002,0.333714 0.0439,0.333714 0.0461,0 0.76014,-0.240932 1.58675,-0.535405 z m 4.88901,0.201691 c -0.0365,-0.304735 -0.17427,-0.381205 -1.58675,-0.88064195 l -1.5468,-0.54693 v 0.35003 c 0,0.331008 0.0772,0.37825 1.42053,0.86936495 1.72661,0.631238 1.76422,0.635809 1.71302,0.208177 z m -4.80729,-1.13072095 c 1.35587,-0.470532 1.41988,-0.508767 1.42053,-0.848485 5.4e-4,-0.283109 -0.0444,-0.340556 -0.22029,-0.281344 -2.53888,0.854879 -2.87223,1.012811 -2.91426,1.380706 -0.0298,0.26123195 0.006,0.34706595 0.12627,0.30313795 0.0923,-0.0337 0.80683,-0.28300995 1.58775,-0.55401495 z m 4.80729,0.242342 c -0.0361,-0.305976 -0.16631,-0.384084 -1.36578,-0.81956 -0.7292,-0.264744 -1.42526,-0.514126 -1.54679,-0.554184 -0.17546,-0.05783 -0.22098,6.31e-4 -0.22098,0.28354 0,0.340795 0.0649,0.37946 1.48367,0.88457 0.81601,0.290509 1.53005,0.53171795 1.58675,0.53602095 0.0567,0.0043 0.0851,-0.14437195 0.0631,-0.33038695 z m -4.96445,-1.097664 c 1.39602,-0.504695 1.51846,-0.574942 1.55626,-0.892865 0.0482,-0.405531 0.1617,-0.421762 -1.71428,0.245166 -1.34305,0.477468 -1.42034,0.523848 -1.42034,0.852317 0,0.191055 0.0142,0.346428 0.0316,0.345273 0.0174,-0.0011 0.71342,-0.248606 1.5468,-0.549891 z m 4.98695,0.20475 c -6.4e-4,-0.328875 -0.0758,-0.373299 -1.42052,-0.839976 -0.78092,-0.271005 -1.49541,-0.520312 -1.58775,-0.554014 -0.12004,-0.04381 -0.15603,0.04097 -0.12627,0.29739 0.0388,0.334123 0.141,0.394826 1.49372,0.887036 0.79866,0.290604 1.49471,0.534768 1.5468,0.542586 0.0521,0.0078 0.0944,-0.14204 0.094,-0.333022 z m -3.62955,-1.611802 c 0.21259,-0.08494 0.32323,-0.692156 0.12626,-0.693026 -0.0521,-2.53e-4 -0.76234,0.234792 -1.57836,0.522271 -1.42207,0.500992 -1.48366,0.537544 -1.48366,0.880543 v 0.357851 l 1.35739,-0.489679 c 0.74657,-0.269323 1.45683,-0.529406 1.57837,-0.57796 z m 3.63023,0.722214 c 0,-0.336158 -0.0706,-0.378292 -1.48366,-0.885793 -0.81601,-0.293067 -1.53005,-0.531989 -1.58675,-0.530939 -0.0567,10e-4 -0.0851,0.151017 -0.0631,0.333259 0.0362,0.300634 0.18041,0.381806 1.55518,0.875692 0.83338,0.299389 1.52944,0.548029 1.5468,0.552534 0.0174,0.0045 0.0316,-0.150633 0.0316,-0.344753 z m -4.87497,-1.178842 c 1.3108,-0.466505 1.46571,-0.553245 1.46571,-0.820749 0,-0.164513 -0.0462,-0.299115 -0.10259,-0.299115 -0.0936,0 -1.64542,0.519251 -2.64377,0.884656 -0.30741,0.112516 -0.41037,0.226304 -0.41037,0.453522 0,0.166826 0.0507,0.30332 0.11266,0.30332 0.062,0 0.77223,-0.234735 1.57836,-0.521634 z m 4.87497,0.219698 c 0,-0.270135 -0.14297,-0.352113 -1.35739,-0.77832 -0.74657,-0.262011 -1.45683,-0.525886 -1.57836,-0.58639 -0.18498,-0.09209 -0.22098,-0.05027 -0.22098,0.256729 0,0.350566 0.0598,0.389124 1.3574,0.874537 1.64315,0.614707 1.79933,0.63497 1.79933,0.233444 z m -4.89633,-1.112648 c 1.41617,-0.505399 1.48707,-0.547487 1.48707,-0.882799 v -0.352097 l -0.85232,0.325967 c -0.46877,0.179282 -1.17904,0.445818 -1.57836,0.592303 -0.59631,0.218746 -0.72605,0.318245 -0.72605,0.556832 0,0.159772 0.0411,0.290495 0.0913,0.290495 0.0502,0 0.76047,-0.238816 1.57836,-0.530701 z m 4.87355,0.251152 c -0.0321,-0.222447 -0.25959,-0.364479 -1.11364,-0.69534 -0.59031,-0.228686 -1.28637,-0.500177 -1.5468,-0.603313 l -0.47351,-0.187521 v 0.352248 c 0,0.333834 0.0743,0.379394 1.42053,0.871584 1.68859,0.617336 1.76637,0.629246 1.71342,0.262342 z"
           style="fill:#00ccff;fill-opacity:1;stroke-width:0.12626907" />
      </g>
    </clipPath>
  </defs>
  <sodipodi:namedview
     id="base"
     pagecolor="#ffffff"
     bordercolor="#666666"
     borderopacity="1.0"
     inkscape:pageopacity="0.0"
     inkscape:pageshadow="2"
     inkscape:zoom="2.8"
     inkscape:cx="-47.683333"
     inkscape:cy="26.510049"
     inkscape:document-units="px"
     inkscape:current-layer="layer10"
     showgrid="true"
     units="in"
     showguides="false"
     inkscape:window-width="1920"
     inkscape:window-height="1080"
     inkscape:window-x="0"
     inkscape:window-y="0"
     inkscape:window-maximized="0"
     inkscape:snap-bbox="true"
     inkscape:snap-global="false">
    <inkscape:grid
       type="xygrid"
       id="grid4712"
       originx="-9.9771178"
       originy="-29.820954" />
  </sodipodi:namedview>
  <metadata
     id="metadata4165">
    <rdf:RDF>
      <cc:Work
         rdf:about="">
        <dc:format>image/svg+xml</dc:format>
        <dc:type
           rdf:resource="http://purl.org/dc/dcmitype/StillImage" />
        <dc:title></dc:title>
      </cc:Work>
    </rdf:RDF>
  </metadata>
  <g
     inkscape:groupmode="layer"
     id="layer1"
     inkscape:label="Fan 1" />
  <g
     inkscape:groupmode="layer"
     id="layer10"
     inkscape:label="Fan"
     style="display:inline"
     transform="translate(-3.5328446,2.2636422)">
    <rect
       style="fill:#000000;fill-opacity:1;stroke-width:1.27270615"
       id="rect751"
       width="95.580696"
       height="77.763161"
       x="-121.22359"
       y="-23.045155" />
    <path
       style="fill:none;fill-opacity:1;stroke-width:0.12626907"
       d="M -113.60018,33.701593 V 0.11402135 h 34.282053 34.282052 V 33.701593 67.289166 h -34.282052 -34.282053 z"
       id="path753"
       inkscape:connector-curvature="0"
       transform="translate(3.5328446,-2.2636422)" />
    <path
       style="fill:none;fill-opacity:1;stroke-width:0.12626907"
       d="M -113.60018,33.701593 V 0.11402135 h 34.282053 34.282052 V 33.701593 67.289166 h -34.282052 -34.282053 z"
       id="path755"
       inkscape:connector-curvature="0"
       transform="translate(3.5328446,-2.2636422)" />
    <path
       style="fill:none;fill-opacity:1;stroke-width:0.12626907"
       d="M -113.47391,33.701593 V 0.24029042 h 34.155783 34.155783 V 33.701593 67.162897 h -34.155783 -34.155783 z"
       id="path757"
       inkscape:connector-curvature="0"
       transform="translate(3.5328446,-2.2636422)" />
    <path
       style="fill:none;fill-opacity:1;stroke-width:0.12626907"
       d="M -113.44866,33.701593 V 0.24029042 h 34.155787 34.155783 V 33.701593 67.162897 h -34.155783 -34.155787 z"
       id="path5268"
       inkscape:connector-curvature="0"
       transform="translate(3.5328446,-2.2636422)" />
    <path
       style="fill:#00ccff;fill-opacity:1;stroke-width:0.17857143"
       d="m 7.3407772,89.216005 c 0,-4.861607 0.022963,-6.850446 0.051028,-4.419643 0.028065,2.430804 0.028065,6.408483 0,8.839286 -0.028065,2.430804 -0.051028,0.441964 -0.051028,-4.419643 z"
       id="path5569"
       inkscape:connector-curvature="0"
       transform="translate(3.5328446,-2.2636422)" />
    <g
       id="g5790"
       transform="matrix(0.12163577,0,0,0.12163577,5.6596899,0.56774796)"
       style="fill:#00ccff;fill-opacity:1">
      <g
         id="g5730"
         style="fill:#00ccff;fill-opacity:1">
	<g
   id="g5728"
   style="fill:#00ccff;fill-opacity:1">
		<path
   id="path5720"
   d="m 454.968,160.667 c -0.175,-0.257 -0.374,-0.498 -0.595,-0.719 C 393.884,99.46 313.461,66.147 227.919,66.147 142.382,66.147 61.966,99.453 1.48,159.935 0.54,160.868 0,162.145 0,163.487 c 0,1.326 0.526,2.598 1.465,3.536 l 33.113,33.114 c 0.938,0.938 2.209,1.464 3.535,1.464 1.326,0 2.598,-0.527 3.535,-1.464 49.836,-49.839 115.988,-77.285 186.271,-77.285 70.282,0 136.434,27.447 186.271,77.284 0.938,0.938 2.209,1.464 3.534,1.464 1.326,0 2.599,-0.527 3.535,-1.464 l 33.113,-33.114 c 0.938,-0.938 1.465,-2.209 1.465,-3.536 0.002,-1.005 -0.303,-1.987 -0.869,-2.819 z"
   inkscape:connector-curvature="0"
   style="fill:#00ccff;fill-opacity:1" />

		<path
   id="path5722"
   d="m 227.919,153.719 c -62.056,0 -120.461,24.231 -164.458,68.229 -1.952,1.953 -1.952,5.119 0.001,7.071 l 33.01,33.009 c 0.938,0.938 2.209,1.465 3.535,1.465 1.326,0 2.598,-0.527 3.535,-1.465 33.277,-33.277 77.448,-51.605 124.377,-51.605 46.931,0 91.102,18.328 124.376,51.605 0.938,0.938 2.21,1.465 3.536,1.465 1.326,0 2.598,-0.527 3.535,-1.465 l 33.011,-33.009 c 0.938,-0.938 1.465,-2.209 1.465,-3.536 0,-1.327 -0.525,-2.598 -1.465,-3.536 C 348.38,177.951 289.975,153.719 227.919,153.719 Z"
   inkscape:connector-curvature="0"
   style="fill:#00ccff;fill-opacity:1" />

		<path
   id="path5724"
   d="m 227.919,241.292 c -38.701,0 -75.126,15.11 -102.564,42.549 -0.939,0.938 -1.465,2.209 -1.465,3.537 0,1.326 0.525,2.598 1.465,3.535 l 33.01,33.01 c 0.938,0.938 2.209,1.465 3.535,1.465 1.326,0 2.598,-0.527 3.535,-1.465 16.719,-16.719 38.909,-25.926 62.484,-25.926 23.575,0 45.767,9.209 62.485,25.926 0.938,0.938 2.209,1.465 3.534,1.465 1.325,0 2.598,-0.527 3.535,-1.465 l 33.01,-33.01 c 1.952,-1.953 1.952,-5.119 0,-7.07 -27.437,-27.441 -63.862,-42.551 -102.564,-42.551 z"
   inkscape:connector-curvature="0"
   style="fill:#00ccff;fill-opacity:1" />

		<path
   id="path5726"
   d="m 227.919,334.083 c -13.521,0 -26.229,5.264 -35.784,14.822 -1.952,1.953 -1.952,5.118 0.001,7.07 l 32.248,32.25 c 0.938,0.938 2.209,1.465 3.535,1.465 1.326,0 2.599,-0.527 3.535,-1.465 l 32.248,-32.25 c 1.952,-1.953 1.952,-5.118 0,-7.071 -9.556,-9.557 -22.264,-14.821 -35.783,-14.821 z"
   inkscape:connector-curvature="0"
   style="fill:#00ccff;fill-opacity:1" />

	</g>

</g>
      <g
         id="g5732"
         style="fill:#00ccff;fill-opacity:1">
</g>
      <g
         id="g5734"
         style="fill:#00ccff;fill-opacity:1">
</g>
      <g
         id="g5736"
         style="fill:#00ccff;fill-opacity:1">
</g>
      <g
         id="g5738"
         style="fill:#00ccff;fill-opacity:1">
</g>
      <g
         id="g5740"
         style="fill:#00ccff;fill-opacity:1">
</g>
      <g
         id="g5742"
         style="fill:#00ccff;fill-opacity:1">
</g>
      <g
         id="g5744"
         style="fill:#00ccff;fill-opacity:1">
</g>
      <g
         id="g5746"
         style="fill:#00ccff;fill-opacity:1">
</g>
      <g
         id="g5748"
         style="fill:#00ccff;fill-opacity:1">
</g>
      <g
         id="g5750"
         style="fill:#00ccff;fill-opacity:1">
</g>
      <g
         id="g5752"
         style="fill:#00ccff;fill-opacity:1">
</g>
      <g
         id="g5754"
         style="fill:#00ccff;fill-opacity:1">
</g>
      <g
         id="g5756"
         style="fill:#00ccff;fill-opacity:1">
</g>
      <g
         id="g5758"
         style="fill:#00ccff;fill-opacity:1">
</g>
      <g
         id="g5760"
         style="fill:#00ccff;fill-opacity:1">
</g>
    </g>
  </g>
</svg>
